<?xml version="1.0" encoding="UTF-8" standalone="no"?>
<svg
   id="Layer_1"
   data-name="Layer 1"
   viewBox="0 0 666.27 618.47"
   version="1.1"
   sodipodi:docname="bonsai-logo-excited.svg"
   inkscape:version="1.1 (c4e8f9e, 2021-05-24)"
   xmlns:inkscape="http://www.inkscape.org/namespaces/inkscape"
   xmlns:sodipodi="http://sodipodi.sourceforge.net/DTD/sodipodi-0.dtd"
   xmlns="http://www.w3.org/2000/svg"
   xmlns:svg="http://www.w3.org/2000/svg">
  <sodipodi:namedview
     id="namedview915"
     pagecolor="#ffffff"
     bordercolor="#666666"
     borderopacity="1.0"
     inkscape:pageshadow="2"
     inkscape:pageopacity="0.0"
     inkscape:pagecheckerboard="0"
     showgrid="false"
     inkscape:zoom="1.4115479"
     inkscape:cx="121.49783"
     inkscape:cy="318.44474"
     inkscape:window-width="1280"
     inkscape:window-height="1307"
     inkscape:window-x="0"
     inkscape:window-y="25"
     inkscape:window-maximized="0"
     inkscape:current-layer="Layer_1" />
  <defs
     id="defs826">
    <style
       id="style824">.cls-1{fill:#6b8090;}.cls-2{fill:#596b79;}.cls-3{fill:#c9e092;}.cls-4{fill:#d2b198;}.cls-5{fill:none;}.cls-6{fill:#acd16a;}.cls-7{fill:#aa8b78;}.cls-8{fill:#fcdf65;}.cls-9{fill:#625248;}.cls-10{fill:#232e33;}.cls-11{fill:#778e3a;}.cls-12{fill:#f1a39f;}.cls-13{fill:#483526;}.cls-14{fill:#dfb228;}</style>
  </defs>
  <path
     class="cls-1"
     d="m 123.0531,447.41 a -778.92,778.92 0 0 0 0.51,84.39 c 0.32,5.29 0.71,10.63 2.22,15.72 3.1,10.41 10.81,19 20,24.88 9.19,5.88 19.7,9.15 30.31,11.49 -0.49,5.67 -1,11.48 0.4,17 1.4,5.52 3.26,10.44 8.93,11.06 a -267.64,267.64 0 0 0 33.12,1.56 c 3.89,-0.06 8,-0.29 11.18,-2.61 4,-3 5.1,-8.48 4.9,-13.44 -0.2,-4.96 -1.43,-9.91 -0.88,-14.85 77.53,-0.4 154.69,1 232.22,1.1 a -48.35,48.35 0 0 0 1.29,22.39 c 0.64,2.12 1.51,4.32 3.28,5.66 1.77,1.34 4.32,1.6 6.64,1.73 q 16.19,0.87 32.4,0.3 c 3.36,-0.12 6.91,-0.35 9.69,-2.25 3.64,-2.49 5,-7.24 5.21,-11.65 0.21,-4.41 -0.48,-8.86 0.24,-13.21 a -4.43,4.43 0 0 1 1,-2.45 -5.2,5.2 0 0 1 2.94,-1.17 c 22.93,-4.23 42.44,-23.14 47.4,-45.93 a -104.58,104.58 0 0 0 1.9,-19.2 -434.85,434.85 0 0 0 -3.75,-71.13 c -34.16,-0.11 -66.88,-4.08 -101,-3.78 q -16.46,0.13 -32.92,0.33 l -23.85,0.25 c -6.15,0.07 -12.31,0.13 -18.46,0.22 q -45.15,0.61 -90.28,2.55 c -56.19,2.41 -111.42,2.5 -167.34,-3.58 -6.01,-0.64 -17.01,-1.36 -17.3,4.62 z"
     id="path828" />
  <rect
     class="cls-1"
     x="-590.12311"
     y="404.39001"
     width="478.98001"
     height="37.98"
     rx="5.0900002"
     id="rect830"
     transform="scale(-1,1)" />
  <path
     class="cls-2"
     d="m 212.0631,508.33 a -26.93,26.93 0 0 1 -26.85,-26.85 v -76.25 c -22.48,0 -47.29,-3 -69.37,0.79 a -8.84,8.84 0 0 0 -3,0.9 c -2.29,1.33 -2.92,4.31 -3.17,7 a -71.72,71.72 0 0 0 1.34,22.35 c 0.38,1.7 0.9,3.51 2.28,4.57 1.65,1.25 3.93,1 6,1.43 8.27,1.66 3.81,47.3 3.81,55.43 v 32.2 a -52.75,52.75 0 0 0 52.6,52.6 h 347.7 c 46.3,0 52.49,-45.3 52.59,-74.14 z"
     id="path832" />
  <path
     class="cls-3"
     d="m 251.6031,279.14 c 36.1,4.23 72.61,1.56 108.86,-1.11 29.41,-2.17 59.09,-4.42 87.71,-12 23.55,-6.22 53,-15.51 63.11,-40 4.89,-11.82 5.33,-25.14 3.14,-37.75 -3.12,-18 -12.94,-36.37 -30,-43 -2.42,-0.93 -5.26,-1.9 -6.17,-4.34 -0.57,-1.54 -0.17,-3.26 0.15,-4.87 3.91,-19.57 -5.21,-41.1 -22,-51.9 -11.2,-7.2 -20.24,-10.27 -33.33,-12.62 -2.13,-0.38 -4.34,-0.75 -6.1,-2 -2.28,-1.62 -3.38,-4.38 -4.54,-6.92 -8.22,-17.89 -25.14,-30.64 -43.48,-37.78 -18.34,-7.14 -38.2,-9.32 -57.81,-11 -17,-1.42 -29.81,6.82 -45.35,13.77 -10.25,4.71 -20.25,10.32 -28.25,18.36 -9.12,9.26 -15,21.17 -20.66,32.85 -14.52,-4.12 -31.55,-5.45 -43.36,4 -12.77,10.16 -14.51,28.57 -15.22,44.87 -18.76,8.19 -38.15,22.15 -44.89,41.47 -3.19,9.16 -3.31,19.18 -1.6,28.71 a -78.78,78.78 0 0 0 23.73,43.36 c 18.11,16.85 42.9,24.09 66.72,30.79 17.6,4.95 31.18,4.98 49.34,7.11 z"
     id="path834"
     style="fill:#c9ef92;fill-opacity:1" />
  <path
     class="cls-3"
     d="m 485.4231,309.33 c 10,21.74 35.26,33.88 59.16,32.81 23.9,-1.07 47.47,-13.18 65,-29.44 22,-5 39.8,-17.85 46.38,-39.28 7.06,-23 1.24,-44.05 -15.45,-61.42 -6.92,-7.2 -16.49,-5.09 -26.41,-6.24 -2,-0.23 -4,-0.44 -5.68,-1.54 a -13.15,13.15 0 0 1 -3.47,-4.17 c -14.82,-23.38 -41.94,-38.45 -69.61,-38.69 -10.93,-0.1 -21.79,2 -32.3,4.95 -8.08,2.29 -16.09,5.18 -23.15,9.74 -17.16,11.08 -27.1,31.51 -28,51.91 -0.11,2.41 -0.13,4.92 -1.21,7.07 -1.08,2.15 -3.35,3.83 -5.32,5.48 -14.62,12.28 -18.31,35.7 -8.17,51.89 10.14,16.19 30.8,24.7 48.23,16.93 z"
     id="path836"
     style="fill:#c9ef92;fill-opacity:1" />
  <path
     class="cls-3"
     d="m 91.543104,342.03 c 13.189996,14.3 32.669996,21.51 51.999996,23.19 19.33,1.68 38.8,-1.73 57.74,-6.07 17.82,-4.09 33.51,-10.87 42.63,-27.54 8.1,-14.82 10.74,-34 0.36,-48.41 -2.54,-3.55 -5.55,-6.86 -7.12,-10.94 -1.27,-3.31 -1.5,-6.9 -1.88,-10.43 -1.2,-11.4 -4,-22.82 -10,-32.62 -6,-9.8 -15.32,-17.85 -26.46,-20.56 -24.17,-5.88 -53.91,-3.44 -70.18,15.37 -15.4,-5.26 -32.619996,-7.63 -47.779996,-1.72 -15.16,5.91 -27.13,22 -24.15,38 0.34,1.8 0.84,3.74 0.07,5.4 -0.77,1.66 -2.74,2.62 -4.47,3.46 a -46.44,46.44 0 0 0 -17.3,14.56 c -10.15,14.08 -10.5,36.07 2.77,47.26 4.34,3.66 9.7,5.92 15.15,7.51 13.02,3.75 25.49,6.84 38.62,3.54 z"
     id="path838"
     style="fill:#c9ef92;fill-opacity:1" />
  <path
     class="cls-4"
     d="m 294.4131,352.79 a -82.18,82.18 0 0 1 -29.09,-2.24 c -7.36,-1.91 -16.52,-9.11 -23.81,-9 -4.53,0.05 -51.08,25.94 -52.69,22 7.05,17.36 20.7,39.21 41.19,39.9 22.95,0.77 45.39,4.08 68.45,2.59 7.87,-0.51 15.72,-1.42 23.6,-1.49 12.48,-0.22 24.83,1.78 37.27,2.41 32.26,1.53 64.59,-6.41 96.71,-3.07 2.62,0.28 5.36,0.61 7.8,-0.37 2.44,-0.98 4.17,-3.09 5.7,-5.19 10.2,-13.55 17.18,-29.27 22.61,-45.33 4.43,-13.15 7.42,-29.06 -1.44,-39.74 a -15.07,15.07 0 0 0 -9.32,-5.65 -22.38,22.38 0 0 0 -6,0.32 c -13,1.85 -18.81,2 -27.48,11.6 a -83.46,83.46 0 0 1 -29.65,21.27 -10.46,10.46 0 0 1 -5.31,1.11 c -2.21,-0.3 -4,-1.88 -5.64,-3.39 l -57.63,-53 a -26.08,26.08 0 0 0 -6.58,-4.89 c -3.62,-1.66 -7.75,-1.59 -11.72,-1.49 l -72.5,1.86 c -1.14,5.31 2.26,10.43 5.35,14.9 a -273.75,273.75 0 0 1 30.18,56.89 z"
     id="path840" />
  <path
     class="cls-5"
     d="m 484.5431,145.78 a -114.17,114.17 0 0 0 -49.19,39.67 c -10.92,15.63 -30.89,24.95 -48.84,29.67 -17.28,4.55 -34.81,5.1 -52.52,5.08 -19.27,0 -38.46,1.17 -57.75,0.6 -11,-0.32 -22.35,-1 -32.1,-6"
     id="path842" />
  <path
     class="cls-6"
     d="m 158.2431,133.95 a -36.64,36.64 0 0 0 -20,29.2 -27.08,27.08 0 0 0 2.39,14.38 c 4.43,8.93 13,11.22 22.29,9.87 4.33,-0.62 8.88,-2.52 13.23,-2.57 3.26,-0.05 6.81,0.81 10.12,1 8.59,0.55 17.32,1.91 25.29,5.29 9.85,4.18 18.57,10.55 27.4,16.48 17.85,12 35.65,16.52 56.87,17.58 a -337.62,337.62 0 0 0 67.76,-3.43 c 13.53,-2.06 28.09,-4.2 40.9,-9.1 10.41,-4 21.56,-7 30.07,-14.74 7.14,-6.49 11.78,-15.22 17.7,-22.84 a -82.63,82.63 0 0 1 35.28,-26.21 c 5,2.72 11.19,3.84 15.12,7.93 a -7.54,7.54 0 0 1 2.4,4 c 0.52,3.92 -4.27,6.09 -8,7.33 a -62.36,62.36 0 0 0 -39.52,41.12 -86.44,86.44 0 0 0 -3,20.25 c -0.1,2.34 -0.16,4.77 -1.19,6.87 -1.28,2.6 -3.82,4.28 -6.05,6.13 a -35.71,35.71 0 0 0 -12.26,21.39 c -0.26,1.54 -0.48,3.23 -1.62,4.29 a -6.48,6.48 0 0 1 -2.64,1.23 c -38.62,11.1 -79.53,10.12 -119.7,9.06 -4.16,-0.11 -5.27,1.35 -9.44,1.45 -19.87,0.45 -40,0.87 -59.34,-3.77 -3.24,1.08 -4,-2.91 -4.82,-6.23 -2.84,-11.51 -2.45,-23.9 -7.38,-34.68 -5.6,-12.23 -17.35,-20.61 -29.7,-25.94 -23.88,-10.31 -53.75,0.78 -72.89,16.33 -5,0.14 -7.22,-3.81 -9.85,-8 -10.09,-16.1 -11.76,-37.39 -3.51,-54.51 8.25,-17.12 25.09,-29 44.09,-29.16 z"
     id="path844" />
  <path
     class="cls-6"
     d="m 449.3531,240.52 a -10.27,10.27 0 0 1 4,-3.39 c 1.66,-0.61 3.88,-0.08 4.51,1.58 a -5.27,5.27 0 0 1 0.06,2.56 c -0.71,5.28 -1,10.74 0.49,15.87 1.49,5.13 4.8,9.94 9.69,12.07 7.48,3.27 17.23,0 23.63,5 3.24,2.57 4.75,6.67 6.89,10.21 6.07,10 18.1,15.75 29.84,15.48 11.74,-0.27 23,-6 31.17,-14.4 3.14,-3.21 6,-6.87 9.91,-9 4.68,-2.58 10.26,-2.7 15.47,-3.82 9.75,-2.1 18.92,-8.42 22.67,-17.65 3.75,-9.23 0.88,-21.22 -7.64,-26.39 -4,-2.42 -8.87,-3.32 -12.33,-6.44 -5.92,-5.34 -4.34,-13.44 -4.84,-20.58 a -46.4,46.4 0 0 0 -21.26,-35.49 c 18.94,4.74 35.59,16.38 45.77,33.05 a -11,11 0 0 0 2.16,2.88 c 1.76,1.47 4.23,1.61 6.52,1.74 7,0.42 14.19,1.55 20.35,5 16.75,9.27 20.68,28 22.16,45.69 0.87,10.48 -0.23,21.35 -4.89,30.79 -8.83,17.87 -29.46,26 -48.78,26.82 -9.31,9 -17.48,17 -29.26,22.4 -11.78,5.4 -25,8.1 -37.84,6.43 a -93.51,93.51 0 0 1 -14.68,-3.38 c -9.67,-2.89 -19.6,-6.7 -26.19,-14.35 -4.18,-4.85 -7.21,-11.36 -13.22,-13.57 -5.75,-2.1 -12,0.53 -18.09,1.19 a -28.15,28.15 0 0 1 -23.81,-9.35 -35.24,35.24 0 0 1 -7.7,-17.41 c -3,-18 5.35,-37.35 20.49,-47.5"
     id="path846" />
  <path
     class="cls-6"
     d="m 55.063104,263.76 a -31.43,31.43 0 0 0 15.22,53.68 c 10.42,2.13 21.19,-1.1 31.809996,-0.48 15.41,0.89 29.52,9.79 44.94,10.53 6.31,0.3 12.6,-0.78 18.77,-2.16 10.31,-2.3 20.77,-5.6 28.78,-12.49 8.01,-6.89 13,-18.14 10,-28.25 -2.36,-7.78 -9.12,-14.25 -9.13,-22.38 0,-3.8 1.51,-7.42 2,-11.19 0.57,-4.8 -0.59,-9.63 -2.09,-14.22 -2,-6.06 -4.71,-12.12 -9.49,-16.35 -4.36,-3.84 -10,-5.82 -15.6,-7.43 q -6.54,-1.89 -13.21,-3.26 c 17.73,-5.78 38.56,-7.27 53,4.58 6.4,5.26 10.93,12.45 14.65,19.85 a -131.67,131.67 0 0 1 9,23.25 c 2.19,7.79 3.69,15.88 7.37,23.09 2.26,4.45 5.32,8.49 7.3,13.07 4.22,9.74 3.15,21.12 -0.57,31.06 -2.44,6.54 -6.09,12.79 -11.45,17.26 -8,6.68 -18.79,8.65 -28.76,11.72 -11.15,3.44 -21.86,8.52 -33.37,10.42 a -104.93,104.93 0 0 1 -20,0.9 c -19.38,-0.58 -40.65,-3.44 -55.559996,-17 -2.84,-2.59 -5.74,-7 -9.58,-8.21 -4.2,-1.29 -9.87,1.28 -14.14,1.7 -10.85,1.06 -22.15,-0.72 -31.57,-6.41 -19.64,-11.87 -23.71,-35.71 -9.64,-53.29 a -102.05,102.05 0 0 1 18.8,-18.11"
     id="path848" />
  <path
     class="cls-7"
     d="m 454.5431,403.33 c -36.75,0 -73.46,-0.25 -110.21,0.59 -34.92,0.8 -69.34,0.54 -104.15,1.08 -6.68,0.1 -13.54,0.17 -19.83,-2.1 -15.9,-5.77 -22.88,-24 -34.88,-35.94 16.55,-11.9 38.41,-14.95 54.28,-27.74 a -108.42,108.42 0 0 0 55.46,16.34 c -1.21,-11.45 -8.21,-21.33 -14.44,-31 -8.28,-12.9 -18.31,-28 -22.51,-42.77 13.47,-5.41 18.16,1.9 25.61,11.23 a -168.12,168.12 0 0 1 22.07,35.31 c 3.11,6.82 5.77,13.91 10,20.13 7.92,11.75 21.77,16.41 35.6,15.33 11.87,-0.92 27.34,-5 34.91,-14.68 a -38.67,38.67 0 0 0 7.66,-21.61 c 7.66,5.28 17.54,10.35 22,18.48 0.4,0.74 0.89,1.55 1.71,1.74 1,0.24 1.93,-0.62 2.62,-1.41 l 27.79,-31.41 a -7.91,7.91 0 0 1 6.42,-3.42 l 23,-3.08 a -9.64,9.64 0 0 1 5,0.21 -9.82,9.82 0 0 1 3.8,3.56 l 8.65,11.74 a -10.06,10.06 0 0 1 2.22,10.66 c -5,22.18 -11.6,44.9 -26.46,62.11 a -19.72,19.72 0 0 1 -6.26,5.29 c -3.06,1.41 -6.65,1.36 -10.06,1.36 z"
     id="path850" />
  <path
     class="cls-8"
     d="m 552.5431,102.64 c -7.94,4.22 -16,8.49 -24.78,10.45 a -231.17,231.17 0 0 1 32.55,-52.34 -7.28,7.28 0 0 1 3.42,-2.74 c 1.66,-0.45 3.4,0.29 4.92,1.09 6,3.14 24.3,15.13 18,22.78 -3.78,4.55 -11.12,7.92 -16.15,10.89 -5.89,3.48 -11.96,6.68 -17.96,9.87 z"
     id="path852" />
  <path
     class="cls-8"
     d="m 509.0431,10.78 c -2,7.55 -7.21,15.14 -11,22 q -6.5,11.89 -13.9,23.29 c -1.63,0.47 -1.56,-1.36 -1.7,-3.06 -1.15,-13.79 -2.25,-27.61 -1.81,-41.43 0.09,-2.93 0.61,-6.41 3.27,-7.63 1.5,-0.69 3.26,-0.4 4.88,-0.08 7.59,1.46 12.85,4.7 20.26,6.91 z"
     id="path854" />
  <path
     class="cls-8"
     d="m 86.843104,140.41 c 1.33,2.12 2.69,4.39 2.71,6.9 a -1.24,1.24 0 0 1 -0.28,1 c -0.37,0.35 -1,0.2 -1.44,0 -19.79,-7.17 -39.65,-14.86 -56.89,-26.93 -1.13,-0.79 -2.33,-1.72 -2.6,-3.08 -0.27,-1.36 0.56,-2.81 1.39,-4 a -92.77,92.77 0 0 1 14.38,-16.15 c 3.7,-3.3 7.79,-5.83 11.3,-1.58 3.82,4.63 7.47,9.41 11.07,14.21 q 10.75,14.41 20.36,29.63 z"
     id="path856" />
  <path
     class="cls-8"
     d="m 12.203104,217.16 c -1.5,0.39 -3.1899996,0.75 -4.5299996,0 -1.34,-0.75 -1.89,-2.79 -2.11,-4.5 a -71.12,71.12 0 0 1 0,-18.09 c 0.15,-1.16 0.49,-2.53 1.59,-2.92 a -3.42,3.42 0 0 1 1.46,-0.06 l 10.1799996,1.1 c 10.54,1.13 21.09,2.27 31.5,4.27 1.58,0.31 3.33,0.76 4.13,2.15 3.43,5.84 -37.29,16.77 -42.22,18.05 z"
     id="path858" />
  <path
     class="cls-9"
     d="m 414.2631,352.02 a -5.77,5.77 0 0 0 2.66,-0.65 c 18.3,-9.57 33.3,-23.16 43.37,-39.28 a -5.7547285,5.7547285 0 1 0 -9.76,-6.1 c -9,14.39 -22.45,26.55 -38.94,35.17 a -5.76,5.76 0 0 0 2.67,10.86 z"
     id="path860" />
  <path
     class="cls-9"
     d="m 282.6731,409.52 a -5.75,5.75 0 0 0 2.68,-0.67 c 10.11,-5.35 16.7,-13.32 19.57,-23.68 6.27,-22.62 -7.73,-48.39 -12.17,-55.75 l -30.07,-49.85 a -5.76,5.76 0 1 0 -9.86,5.95 l 30.07,49.81 c 7.92,13.12 14.95,32.28 10.94,46.73 -2,7.29 -6.56,12.72 -13.86,16.58 a -5.76,5.76 0 0 0 2.7,10.85 z"
     id="path862" />
  <path
     class="cls-9"
     d="m 436.2031,406.78 h 0.34 a -5.77,5.77 0 0 0 5.36,-6.13 c -1.43,-21.16 -10.77,-42.9 -27,-62.87 -8.58,-10.56 -19.29,-21 -33.71,-32.85 -3.08,-2.54 -6.16,-4.8 -9.13,-7 -7.55,-5.55 -14.07,-10.35 -19,-18.06 a -5.7549218,5.7549218 0 1 0 -9.71,6.18 c 6.06,9.53 14.1,15.44 21.87,21.15 2.85,2.1 5.8,4.26 8.64,6.6 14,11.51 23.89,21.14 32.09,31.22 10.28,12.64 22.86,32.67 24.46,56.38 a -5.77,5.77 0 0 0 5.79,5.38 z"
     id="path864" />
  <path
     class="cls-9"
     d="m 466.8131,407.25 a -5.7,5.7 0 0 0 4.28,-1.91 c 18.79,-21 29.93,-49.16 31.36,-79.4 a -5.76,5.76 0 1 0 -11.5,-0.54 c -1.28,27.19 -11.65,53.53 -28.43,72.26 a -5.75,5.75 0 0 0 4.29,9.59 z"
     id="path866" />
  <path
     class="cls-9"
     d="m 222.3731,409.59 a -5.76,5.76 0 0 0 3.17,-10.57 c -16.23,-10.69 -27.17,-23.69 -32.54,-38.63 a -5.7520279,5.7520279 0 1 0 -10.83,3.88 c 6.22,17.38 18.69,32.31 37.05,44.37 a -5.72,5.72 0 0 0 3.15,0.95 z"
     id="path868" />
  <path
     class="cls-9"
     d="m 295.3131,362.09 c 1.05,0 2.1,0 3.15,0 a -5.76,5.76 0 0 0 -0.3,-11.51 c -20.82,0.53 -42.27,-5 -58.8,-15.31 a -5.76,5.76 0 0 0 -6.07,9.78 c 17.82,11.02 39.73,17.04 62.02,17.04 z"
     id="path870" />
  <path
     class="cls-10"
     d="m 119.4831,450.17 h 462.32 a -14.1,14.1 0 0 0 14.08,-14.09 v -22.52 a -14.1,14.1 0 0 0 -14.08,-14.09 h -462.32 a -14.1,14.1 0 0 0 -14.09,14.09 v 22.52 a -14.1,14.1 0 0 0 14.09,14.09 z m 462.32,-39.19 a -2.61,2.61 0 0 1 2.57,2.58 v 22.52 a -2.61,2.61 0 0 1 -2.57,2.58 h -462.32 a -2.6,2.6 0 0 1 -2.57,-2.58 v -22.52 a -2.6,2.6 0 0 1 2.57,-2.58 z"
     id="path872" />
  <path
     class="cls-10"
     d="m 175.6131,588.2 h 347.78 a -58.42,58.42 0 0 0 58.36,-58.35 v -85.44 a -5.75,5.75 0 0 0 -5.76,-5.75 h -453 a -5.75,5.75 0 0 0 -5.76,5.75 v 85.44 a -58.42,58.42 0 0 0 58.38,58.35 z m 394.62,-138 v 79.68 a -46.89,46.89 0 0 1 -46.84,46.84 h -347.78 a -46.9,46.9 0 0 1 -46.84,-46.84 v -79.71 z"
     id="path874" />
  <path
     class="cls-10"
     d="m 477.6131,618.47 h 35.33 a -16.6,16.6 0 0 0 16.6,-16.58 v -19.44 a -5.76,5.76 0 0 0 -5.76,-5.76 h -57 a -5.75,5.75 0 0 0 -5.75,5.76 v 19.44 a -16.59,16.59 0 0 0 16.58,16.58 z m 40.4,-30.27 v 13.69 a -5.08,5.08 0 0 1 -5.07,5.07 h -35.33 a -5.07,5.07 0 0 1 -5.06,-5.07 V 588.2 Z"
     id="path876" />
  <path
     class="cls-10"
     d="m 187.1731,618.47 h 35.32 a -16.6,16.6 0 0 0 16.58,-16.58 v -19.44 a -5.76,5.76 0 0 0 -5.75,-5.76 h -57 a -5.76,5.76 0 0 0 -5.75,5.76 v 19.44 a -16.6,16.6 0 0 0 16.6,16.58 z m 40.37,-30.27 v 13.69 a -5.08,5.08 0 0 1 -5.07,5.07 h -35.32 a -5.08,5.08 0 0 1 -5.07,-5.07 V 588.2 Z"
     id="path878" />
  <path
     class="cls-11"
     d="m 126.2731,236.13 a -6.72,6.72 0 0 0 5.27,-10.8 -84.13,84.13 0 0 1 -7.14,-10.93 c -5.93,-10.85 -7.62,-22.75 -5.14,-36.38 4.07,-22.45 17.52,-37.51 36.89,-41.31 a -8.69,8.69 0 0 0 7.46,-9.93 c -1,-14.51 4.87,-28.26 15.57,-36.77 9.75,-7.76 22,-10 34.47,-6.23 v 0 a -6.72,6.72 0 0 0 8.36,-4.5 c 0.06,-0.19 0.11,-0.39 0.15,-0.58 2.59,-4.55 15.28,-21.74 17.33,-24 16.51,-17.37 34.24,-26.99 57.46,-31.37 22.83,-4.27 46.52,-2.45 66.72,5.14 a -73.79,73.79 0 0 1 43.42,45.4 -6.72,6.72 0 0 0 6.65,4.65 c 23.38,-0.93 50.42,9.63 58.07,35.27 2.72,9.1 2.48,18.18 -0.68,25.56 a -6.71,6.71 0 0 0 4.32,9.09 -45.23,45.23 0 0 1 25.91,19.28 -6.7114026,6.7114026 0 1 0 11.29,-7.26 -58.28,58.28 0 0 0 -26.91,-22.63 -53.57,53.57 0 0 0 -1.06,-27.88 c -9.14,-30.62 -39.14,-44.34 -66.49,-44.87 a -87.82,87.82 0 0 0 -49.8,-49.16 c -22.79,-8.55 -48.34,-10.54 -73.91,-5.76 -25.81,4.83 -46.38,16 -64.72,35.27 -1.42,1.48 -7.24,9.29 -10.9,14.36 -3.07,4.25 -5.26,7.37 -6.8,9.75 a -50.2,50.2 0 0 0 -41.2,9.94 c -13.32,10.59 -20.9,27.15 -20.72,44.85 -22.9,5.93 -39.25,24.86 -44.05,51.3 -3,16.54 -0.79,31.76 6.58,45.23 a -97.6,97.6 0 0 0 8.28,12.68 -6.7,6.7 0 0 0 5.32,2.59 z m 91.27,-165.23 z"
     id="path880" />
  <path
     class="cls-11"
     d="m 308.3731,287.26 c 10.45,0 20.25,-0.29 29,-0.61 26.45,-1 54.92,-2.48 83.87,-6.8 4.31,-0.65 7.91,-1.22 11.33,-1.8 a -6.72,6.72 0 0 0 -2.27,-13.24 c -3.32,0.57 -6.83,1.12 -11,1.75 -28.29,4.23 -56.31,5.71 -82.38,6.67 -14,0.52 -30.64,0.94 -48.26,0.21 l -2.43,-0.1 c -15,-0.62 -32.08,-1.32 -49.12,-3.11 a -6.7116038,6.7116038 0 1 0 -1.4,13.35 c 17.46,1.84 34.73,2.55 50,3.18 l 2.42,0.1 c 6.89,0.29 13.7,0.4 20.24,0.4 z"
     id="path882" />
  <path
     class="cls-11"
     d="m 543.3431,349.33 a -84.55,84.55 0 0 0 64.72,-30.64 l 0.14,-0.17 c 0.26,-0.32 0.6,-0.74 0.81,-0.95 a -15.73,15.73 0 0 1 2.43,-0.13 h 0.67 c 23,-0.28 44.66,-17.5 51.62,-40.95 5.11,-17.25 2.39,-38 -7.1,-54.08 -7.78,-13.2 -19.53,-22.08 -33.09,-25.08 -1.28,-0.28 -3.31,-0.4 -10.12,-0.71 l -5.19,-0.26 a -86.91,86.91 0 0 0 -22.79,-25.83 c -12.8,-9.56 -28,-15.12 -45.23,-16.52 -31.25,-2.54 -62.08,10.07 -80.46,32.92 -9.39,11.67 -13.79,28.45 -12.28,46.45 -0.39,0.25 -0.81,0.52 -1.16,0.73 a -33.31,33.31 0 0 0 -2.95,2 -49.48,49.48 0 0 0 -16.06,54.41 c 8.31,23.87 33.27,30.14 54.89,24.33 11.66,20.16 32.48,32.92 56.42,34.36 1.58,0.12 3.16,0.12 4.73,0.12 z m 77.47,-138.9 c 12.55,2.83 20.11,11.78 24.25,18.81 7.55,12.81 9.82,29.86 5.79,43.44 -5.24,17.66 -22,31.13 -38.91,31.34 h -0.59 c -2.61,0 -6.17,0 -9.54,2.19 a -17.14,17.14 0 0 0 -4,3.86 l -0.13,0.16 a -70.81,70.81 0 0 1 -58.22,25.56 c -20.7,-1.24 -37.85,-12.29 -47,-30.3 a -8.48,8.48 0 0 0 -11.06,-4.4 c -15.6,5.18 -35.19,2.7 -41.35,-15 -4.79,-13.77 0.12,-30.35 11.68,-39.42 0.41,-0.32 1,-0.73 1.74,-1.16 2.22,-1.38 5.26,-3.27 7,-6.63 a -6.73,6.73 0 0 0 0.71,-3.92 c -1.88,-15.4 1.51,-30.2 9.08,-39.61 15.64,-19.43 42,-30.14 68.91,-28 14.66,1.2 27.54,5.87 38.29,13.9 v 0 a -74.32,74.32 0 0 1 20.79,24.55 c 1.85,3.43 5,3.62 8.38,3.83 1.72,0.1 4,0.21 6.25,0.31 2.66,0.17 6.85,0.39 7.93,0.49 z m -39.38,-34.52 z"
     id="path884" />
  <path
     class="cls-11"
     d="m 159.1631,371.96 a -144.54,144.54 0 0 0 68.52,-17.22 c 14.37,-7.82 29.31,-24.13 30.28,-42.94 a -50.4,50.4 0 0 0 -11.19,-33.91 c -0.83,-1 -1.55,-1.85 -2.18,-2.57 a -16.65,16.65 0 0 1 -1.47,-1.81 -10.34,10.34 0 0 1 -0.05,-2.9 -66.5,66.5 0 0 0 -1.18,-16.22 c -4.34,-22.17 -19.27,-41.43 -39,-50.26 -25.2,-11.3 -56.63,-5.14 -76.19,14.09 a -56.93,56.93 0 0 0 -9.36,-3.82 c -9.7,-3.15 -21.099996,-3.38 -32.079996,-0.64 v 0 c -8,2 -22.45,6.94 -29.69,17.87 -5.49,8.28 -7.22,19.55 -5,29.95 a -43.78,43.78 0 0 0 -25.25,17.83 c -6,9.16 -7.59,20.69 -4.49,32.47 3.51,13.37 12.42,24.86 23.82,30.74 13.27,6.85 28.15,5.92 42.58,3.69 4.47,6.24 12.45,11.67 12.56,11.75 15.189996,9.95 34.249996,12.46 49.149996,13.54 3.43,0.24 6.83,0.36 10.22,0.36 z m 17,-160 a -52.1,52.1 0 0 1 21.3,4.4 c 15.79,7.08 27.79,22.63 31.3,40.58 a -52.67,52.67 0 0 1 0.94,12.94 c -0.39,7.45 1.17,10.07 4.82,14.25 0.54,0.62 1.17,1.33 1.88,2.21 a -36.8,36.8 0 0 1 8.2,24.74 c -0.7,13.56 -12.56,26 -23.29,31.85 a -131.18,131.18 0 0 1 -71.3,15.25 c -14.11,-1 -30.23,-3.17 -42.76,-11.37 -2.08,-1.37 -7.999996,-6.71 -9.519996,-9 a -6.71,6.71 0 0 0 -7.76,-5.56 c -13.68,2.34 -28,4.14 -39.06,-1.58 -8,-4.1 -14.47,-12.62 -17,-22.23 -2.12,-8.05 -1.14,-15.76 2.75,-21.69 4.78,-7.31 13.74,-12.4 23.37,-13.29 a -6.71,6.71 0 0 0 5.5,-9.46 c -3.59,-7.92 -3.05,-18.42 1.29,-25 3.41,-5.14 11.53,-9.73 21.74,-12.26 v 0 a -45.62,45.62 0 0 1 24.699996,0.38 -52.56,52.56 0 0 1 7.35,3 -6.72,6.72 0 0 0 11.6,2 v 0 c 10.27,-12.79 27.23,-20.14 43.9,-20.14 z M 97.743104,339.41 Z m -0.26,-1.93 z"
     id="path886" />
  <ellipse
     class="cls-12"
     cx="-190.7731"
     cy="138.53999"
     rx="17.07"
     ry="11.5"
     id="ellipse888"
     transform="scale(-1,1)" />
  <ellipse
     class="cls-12"
     cx="-441.79312"
     cy="132.33"
     rx="17.07"
     ry="11.5"
     id="ellipse890"
     transform="scale(-1,1)" />
  <path
     class="cls-13"
     d="m 324.5431,130.64 c 8.61,-2.15 16.55,-8.58 25.8,-4.3 3.88,1.79 6,7.83 6.4,11.74 a -24.13,24.13 0 0 1 -4.92,16.66 c -7.15,9.35 -17.44,12.68 -27.84,14.29 a -45.9,45.9 0 0 1 -32.43,-7 c -8,-5.35 -13.48,-15.56 -12.72,-25.27 0.33,-4.28 2.33,-10.61 6.35,-12.9 8.3,-4.74 16.58,-0.14 23.74,4.3 a -19,19 0 0 0 15.62,2.48 z"
     id="path892" />
  <path
     class="cls-12"
     d="m 323.9431,142.62 a -41.13,41.13 0 0 1 6.91,-0.57 c 4.69,0.09 9.77,1.95 11.9,6.14 2.52,4.93 -3.16,9 -6.92,11.2 a -37.69,37.69 0 0 1 -13.16,4.31 -33.33,33.33 0 0 1 -23.65,-5 -14.42,14.42 0 0 1 -6.67,-9.51 c -0.61,-3.39 0.57,-6.72 4.18,-7.58 2.91,-0.7 6,0.35 8.86,1 a -41.9,41.9 0 0 0 11.49,1 c 2.37,-0.28 4.66,-0.64 7.06,-0.99 z"
     id="path894" />
  <path
     class="cls-13"
     d="m 412.9531,97.21 a -57.61,57.61 0 0 0 -11.56,0.91 -56.9,56.9 0 0 0 -11.1,3.26 -86.63,86.63 0 0 0 -19.42,11.42 v 0 l -0.13,0.09 a -4.29,4.29 0 0 0 3.58,7.58 c 7.47,-1.75 15.11,-2.49 22.5,-1.13 a -47.59,47.59 0 0 1 10.82,3.38 -77.42,77.42 0 0 1 10.25,5.61 v 0 a -2.6256475,2.6256475 0 0 0 3,-4.31 -82.17,82.17 0 0 0 -10.57,-6.8 -52.31,52.31 0 0 0 -24.89,-6.3 -76.77,76.77 0 0 0 -12.8,1.06 l 3.45,7.68 v 0 a -77.49,77.49 0 0 1 17.46,-10.27 -47.53,47.53 0 0 1 19.23,-3.55 -4.32,4.32 0 0 0 0.22,-8.63 z"
     id="path896" />
  <path
     class="cls-13"
     d="m 219.8131,112.33 a -47.7,47.7 0 0 1 19.24,3.54 -77.38,77.38 0 0 1 17.44,10.31 v 0 l 3.46,-7.67 a -75.73,75.73 0 0 0 -12.8,-1.06 -52.46,52.46 0 0 0 -24.9,6.29 -83.53,83.53 0 0 0 -10.56,6.8 -2.6338612,2.6338612 0 0 0 3,4.33 v 0 a -75.68,75.68 0 0 1 10.25,-5.64 -47.1,47.1 0 0 1 10.82,-3.38 c 7.39,-1.36 15,-0.63 22.49,1.13 a -4.29,4.29 0 0 0 3.59,-7.58 l -0.13,-0.09 v 0 a -85.59,85.59 0 0 0 -19.41,-11.42 -57.2,57.2 0 0 0 -11.11,-3.26 -56,56 0 0 0 -11.55,-0.91 v 0 a -4.32,4.32 0 0 0 0.19,8.63 z"
     id="path898" />
  <path
     class="cls-6"
     d="m 153.7031,273.89 a -18.93,18.93 0 0 0 -6.87,-8.3 -19.63,19.63 0 0 0 -10.75,-3.42 -20.63,20.63 0 0 0 -11.29,3.32 -21.37,21.37 0 0 0 -8,9.28 v 0 l 10.5,-3 a -22.8,22.8 0 0 0 -11.19,-3.93 -22.18,22.18 0 0 0 -11.22,2 -21,21 0 0 0 -8.279996,7.19 -20.33,20.33 0 0 0 -3.48,9.91 -3.25,3.25 0 0 0 6.36,1.12 v -0.14 a -13.12,13.12 0 0 1 3.489996,-5.76 -12,12 0 0 1 5.49,-3.05 -11.33,11.33 0 0 1 5.84,0.25 -10,10 0 0 1 4.57,2.86 -5.88,5.88 0 0 0 9.75,-1.35 l 0.75,-1.61 v 0 a -8.61,8.61 0 0 1 2.4,-4.53 -10,10 0 0 1 4.92,-2.77 -10.38,10.38 0 0 1 6.08,0.63 -11.57,11.57 0 0 1 5.2,4.12 l 0.09,0.13 a -3.22,3.22 0 0 0 5.63,-3.06 z"
     id="path900" />
  <path
     class="cls-6"
     d="m 575.3031,235.93 a -15.45,15.45 0 0 0 -2.22,-5.93 -18.11,18.11 0 0 0 -4.17,-4.59 -19.48,19.48 0 0 0 -11.68,-4.16 -22.87,22.87 0 0 0 -11.89,3.32 -27.81,27.81 0 0 0 -8.81,8.33 v 0 l 12,0.86 a -42.6,42.6 0 0 0 -11.26,-14.66 -32.38,32.38 0 0 0 -17.2,-7.44 -35.66,35.66 0 0 0 -17.74,2.83 -34.72,34.72 0 0 0 -13.83,10.73 -3.16,3.16 0 0 0 4.8,4.1 v 0 a -27.6,27.6 0 0 1 11.86,-7.23 -26.65,26.65 0 0 1 13.41,-0.63 -21.65,21.65 0 0 1 10.85,6.31 -30,30 0 0 1 6.67,11.15 -6.49,6.49 0 0 0 11.65,1.41 l 0.34,-0.53 v 0 a -15.09,15.09 0 0 1 4,-5.23 -11.66,11.66 0 0 1 5.65,-2.71 -9.49,9.49 0 0 1 6,1.1 -8.3,8.3 0 0 1 4,4.57 l 0.07,0.21 a -3.87,3.87 0 0 0 7.5,-1.77 z"
     id="path902" />
  <path
     class="cls-6"
     d="m 314.4231,46.87 a -18.05,18.05 0 0 0 -8.1,-6.42 -18.7,18.7 0 0 0 -10.78,-1.07 -19.89,19.89 0 0 0 -10,5.38 -20.49,20.49 0 0 0 -5.71,10.37 v 0 l 9.71,-5.07 a -21.93,21.93 0 0 0 -11.34,-1.4 -21.27,21.27 0 0 0 -10.13,4.23 -20.21,20.21 0 0 0 -6.33,8.44 -19.51,19.51 0 0 0 -1.2,10 -3.25,3.25 0 0 0 6.45,-0.23 v -0.16 a -12.17,12.17 0 0 1 2.12,-5.94 -11,11 0 0 1 4.43,-3.81 -10.51,10.51 0 0 1 5.35,-0.86 -9.22,9.22 0 0 1 4.64,1.75 -5.8,5.8 0 0 0 8.15,-1 -5.72,5.72 0 0 0 1.06,-2.21 l 0.44,-1.86 v 0 a -7.77,7.77 0 0 1 1.21,-4.54 -9.17,9.17 0 0 1 3.85,-3.5 -9.75,9.75 0 0 1 5.64,-0.69 -10.91,10.91 0 0 1 5.58,2.7 l 0.13,0.11 a -3.22,3.22 0 0 0 4.85,-4.18 z"
     id="path904" />
  <path
     class="cls-14"
     d="m 530.2231,117.23 a -11.3,11.3 0 0 0 5.19,-1.46 c 4.71,-2.44 9.5,-4.79 14.57,-7.29 14.69,-7.23 29.88,-14.71 42.7,-24.1 a -4.32,4.32 0 0 0 1.29,-5.45 c -6,-11.63 -17.15,-20.14 -23.29,-24.18 a -7.27,7.27 0 0 0 -10.83,1.76 -520.67,520.67 0 0 0 -34.31,48.18 c -3.91,6.22 -0.88,9.81 0.15,10.77 a -6.55,6.55 0 0 0 4.53,1.77 z m 0,-8.64 z m 54.19,-28.93 c -11.56,7.93 -25.11,14.61 -38.25,21.07 -3.82,1.88 -7.74,3.81 -11.56,5.75 a -509.89,509.89 0 0 1 31.73,-44.26 c 7.82,5.21 14.11,11.29 18.09,17.44 z m -19,-18 z"
     id="path906" />
  <path
     class="cls-14"
     d="m 87.543104,153.97 a -6.49,6.49 0 0 0 4.55,-1.77 c 1,-1 4.07,-4.55 0.15,-10.77 a -516.93,516.93 0 0 0 -34.33,-48.18 -7.27,7.27 0 0 0 -10.83,-1.76 c -6.13,4 -17.32,12.55 -23.28,24.18 a -4.31,4.31 0 0 0 1.29,5.45 c 12.81,9.39 28,16.87 42.7,24.1 5.07,2.5 9.86,4.86 14.56,7.29 a -11.33,11.33 0 0 0 5.19,1.46 z m -36.11,-55 a -513.47,513.47 0 0 1 31.72,44.26 c -3.81,-1.93 -7.73,-3.86 -11.55,-5.74 -13.14,-6.47 -26.69,-13.14 -38.25,-21.08 3.97,-6.16 10.25,-12.24 18.07,-17.45 z m 1,-0.6 z"
     id="path908" />
  <path
     class="cls-14"
     d="m 483.9931,60.39 c 1.78,0 4.33,-0.79 6.42,-4.5 v 0 c 2,-3.57 4.11,-7.12 6.32,-10.88 6.46,-11 13.13,-22.27 17.47,-33.85 a -4.33,4.33 0 0 0 -1.91,-5.27 c -9,-5.1 -20,-5.88 -25.8,-5.89 a -7.16,7.16 0 0 0 -5,1.64 -7.34,7.34 0 0 0 -2.2,5 -403.23,403.23 0 0 0 -1.76,45.85 c 0.12,6.43 4.22,7.63 5.47,7.84 a -6.27,6.27 0 0 0 0.99,0.06 z m -1.45,-8.14 z m 22.12,-40.47 c -4.06,9.68 -9.8,19.4 -15.36,28.84 -1.08,1.82 -2.17,3.67 -3.25,5.52 0,-12.5 0.53,-25.08 1.68,-37.49 a -48.29,48.29 0 0 1 16.93,3.13 z m -18.55,-3.14 z"
     id="path910" />
  <path
     class="cls-14"
     d="m 6.4131044,222.88 a -4.34,4.34 0 0 0 0.8,-0.08 c 12.1599996,-2.27 24.4699996,-6.89 36.3699996,-11.36 4.08,-1.53 7.94,-3 11.8,-4.34 4.88,-1.72 5.62,-4.86 5.63,-6.58 0,-1.27 -0.46,-5.52 -6.78,-6.75 a -402.32,402.32 0 0 0 -45.4599996,-6.17 -6.59,6.59 0 0 0 -7.77,6 c -1.00000001,5.69 -2.12,16.7 1.35,26.43 a -4.32,4.32 0 0 0 4.06,2.85 z M 46.543104,201.12 c -2,0.74 -4,1.5 -6,2.24 -10.26,3.85 -20.83,7.82 -31.0699996,10.16 a -48.62,48.62 0 0 1 -0.16,-17.22 c 12.4299996,1.03 24.9199996,2.63 37.2299996,4.82 z"
     id="path912" />
</svg>
