<svg id="Layer_1" data-name="Layer 1" xmlns="http://www.w3.org/2000/svg" viewBox="0 0 710.61 524.96"><defs><style>.cls-1{fill:#ffdeb4;}.cls-2{fill:#e6b57f;}.cls-3{fill:#daa675;}.cls-4{fill:#6b8090;}.cls-5{fill:#596b79;}.cls-6{fill:#c9e092;}.cls-7{fill:#f5eeb8;}.cls-8{fill:#d2b198;}.cls-9{fill:#acd16a;}.cls-10{fill:#aa8b78;}.cls-11{fill:none;}.cls-12{fill:#cedde1;}.cls-13{fill:#dcd5cd;}.cls-14{fill:#936a43;}.cls-15{fill:#b98857;}.cls-16{fill:#625248;}.cls-17{fill:#232e33;}.cls-18{fill:#778e3a;}.cls-19{fill:#f1a39f;}.cls-20{fill:#483526;}.cls-21{fill:#9f976b;}.cls-22{fill:#638a8b;}.cls-23{fill:#9a9892;}</style></defs><rect class="cls-1" x="4.25" y="4.64" width="697.84" height="465.59" rx="4.91"/><rect class="cls-2" x="25.06" y="23.96" width="662.06" height="430.73" rx="4.77"/><path class="cls-3" d="M122.19,514.42a8.53,8.53,0,0,1-8.5-8.51V140.1H61.77a8.53,8.53,0,0,0-8.5,8.51V562.32a8.53,8.53,0,0,0,8.5,8.51H706.82a8.54,8.54,0,0,0,8.51-8.51v-47.9Z" transform="translate(-26.88 -116.02)"/><path class="cls-3" d="M662.16,483.21c-.52,5.94.48,11.33-6.4,12.65-4.32.83-8.74-.09-13.08,0l-21.14.53c-4.69.12-9.38.24-14.07.33-24.26.48-48.54.32-72.74-1.41a5.44,5.44,0,0,1-2.47-.58c-1.55-1-1.72-3.09-1.72-4.91q-.09-61.35,1.43-122.68c.07-2.74,2.1-4.53,4.8-5a24.46,24.46,0,0,1,8.17.47,157.08,157.08,0,0,0-.85,20.92l.34,99.19,8.48-.05q17.6-.1,35.19-.18c6.28,0,12.55.26,18.83.22,5.28,0,10.45-1.46,15.59-1.28,13.21.48,26.33,2,39.58,2.08" transform="translate(-26.88 -116.02)"/><path class="cls-3" d="M502.42,277.27c-4.41,0-21.28,1.18-22.87-3.44-1-2.79,1-7.51-1.34-9.65-2.09-1.94-6.52-.38-8.92-.19-4,.32-8,.63-12,.87a209.37,209.37,0,0,1-32.46-.17c-2.24-.22-4.77-.66-6-2.55a8,8,0,0,1-.95-3.58c-.9-9.11-1.8-18.21-2.31-27.35-.59-10.56-.77-21.15-.41-31.73.19-5.74.12-11.15.77-16.81a6.86,6.86,0,0,1,.67-2.85c1.93-3.19,9.09-2.37,9.3,1.62q1.11,21.41,1,42.85c-.05,8.83-.25,17.69.75,26.47a5.1,5.1,0,0,0,.88,2.74c1,1.17,2.69,1.27,4.21,1.28,7,0,14,0,21-.1,6.43-.13,12.43-2.21,19.09-2.18,2.33,0,8.43-1.08,10.33.31,3,2.18.84,7.11,1.56,10,1.2,4.74,6.94,4.72,11.12,4.35,13.69-1.22,27.44-1.42,41.19-1.63.69,0,.68,8.1-.83,9.14a6.76,6.76,0,0,1-2.62.91C523.45,277.51,512.71,277.29,502.42,277.27Z" transform="translate(-26.88 -116.02)"/><path class="cls-3" d="M678.76,303.31l.09-.19c.83-1.84.8-7.73-1.24-8.86s-8.25,0-10.72,0q-11.19,0-22.38-.33-21.82-.57-43.62-2a1.59,1.59,0,0,1-1.82-2c.56-31.69,2.09-63.39.91-95.06-.17-4.64-4.4-3.47-7.7-3.05s-5.55,1.81-5.89,5.46a129.76,129.76,0,0,0-.24,14.36q.35,19.78-.41,39.57c-.23,6.11-.5,11.82-.3,18q.31,10,0,20.11c-.15,3.94-1.72,10.67,2.73,12.86a12.14,12.14,0,0,0,5.22.9c6.67.08,13.13.26,19.72.71,19.36,1.33,39,2.2,58.43.87C674,304.42,677.31,306.16,678.76,303.31Z" transform="translate(-26.88 -116.02)"/><path class="cls-3" d="M516.07,387s0-.09,0-.14c.41-1.38-.48-5.47-2.31-6s-6.71,1-8.73,1.35q-9.1,1.36-18.25,2.58Q469,387.16,451,388.87a2,2,0,0,1-1.25-.15,1.4,1.4,0,0,1-.52-1c-4.22-22.07-7.64-44.28-13.27-66.12-.83-3.2-4.09-1.85-6.72-1.15s-4.24,2-4,4.53a78.54,78.54,0,0,0,1.93,10q3.19,13.69,5.5,27.52c.71,4.27,1.33,8.28,2.39,12.52q1.75,6.93,2.93,14c.47,2.76.18,7.63,4.13,8.59a11.74,11.74,0,0,0,4.38,0c5.44-.78,10.72-1.47,16.14-2,15.95-1.51,32.1-3.38,47.67-6.74C512.39,388.37,515.3,389.17,516.07,387Z" transform="translate(-26.88 -116.02)"/><path class="cls-4" d="M458.84,514.57a576.55,576.55,0,0,1-.38,62.36,51.44,51.44,0,0,1-1.64,11.61c-2.29,7.7-8,14.07-14.75,18.39s-14.56,6.76-22.4,8.49c.36,4.2.72,8.48-.3,12.57s-2.41,7.72-6.6,8.18a198.16,198.16,0,0,1-24.48,1.14c-2.88,0-6-.21-8.26-1.93-2.94-2.19-3.77-6.26-3.62-9.93s1.06-7.32.65-11c-57.3-.3-114.32.72-171.61.81a35.66,35.66,0,0,1-.95,16.55,7.83,7.83,0,0,1-2.42,4.18c-1.37,1-3.19,1.18-4.91,1.28q-12,.63-23.94.22c-2.48-.09-5.11-.26-7.16-1.66-2.69-1.84-3.7-5.35-3.85-8.61s.35-6.55-.18-9.77a3.34,3.34,0,0,0-.73-1.81,3.87,3.87,0,0,0-2.18-.86c-16.94-3.13-31.36-17.1-35-33.94a76.62,76.62,0,0,1-1.41-14.19,320.68,320.68,0,0,1,2.77-52.56c25.24-.08,49.43-3,74.66-2.8l24.33.25,17.63.19,13.64.15q33.36.46,66.71,1.89c41.53,1.78,82.34,1.85,123.66-2.64C450.5,510.68,458.62,510.15,458.84,514.57Z" transform="translate(-26.88 -116.02)"/><rect class="cls-4" x="86.81" y="366.76" width="353.94" height="28.07" rx="5.09"/><path class="cls-5" d="M189.93,559.57a19.89,19.89,0,0,1-19.84-19.84V483.4c-16.62,0-35-2.22-51.27.58a6.46,6.46,0,0,0-2.24.67c-1.69,1-2.16,3.19-2.35,5.14a53.25,53.25,0,0,0,1,16.51,5.56,5.56,0,0,0,1.68,3.37c1.22.93,2.91.76,4.4,1.06,6.12,1.23,2.82,35,2.82,41v23.8A39,39,0,0,0,163,614.36H420c34.21,0,38.78-33.47,38.86-54.79Z" transform="translate(-26.88 -116.02)"/><path class="cls-6" d="M395.22,334c3-9,3-18.76,1.51-28.13-2.28-14.81-10.4-24.28-23.08-31.74-.45-.27-2.15-.36-2.24.16a29.49,29.49,0,0,0-30.48-32.23c-1.72.07-3.72.18-4.86-1.12a5.65,5.65,0,0,1-.95-3.52c-2.4-42.15-50.52-54.77-85.43-52-13.6,1.06-25.65,7.17-37.3,14.2-6.65,4-16.84,9.28-21,16.06-3.26,5.3-3.82,13.89-11.73,14.35-11.79.67-23.43-.57-31.18,8.34a45.92,45.92,0,0,0-10.5,37,69,69,0,0,0-29.76,36.22c-7.3,20.8,1.88,39.82,19.05,52.52,8.25,6.1,17.37,11.53,27.65,13.21,25.72,4.2,50.14,11.43,76.17,12.57,20,.88,41.78,4.36,61.54,1.24a253.37,253.37,0,0,0,57.65-16.31c9.15-3.81,18.14-8.2,25.94-14.32A57.06,57.06,0,0,0,395.22,334Z" transform="translate(-26.88 -116.02)"/><path class="cls-7" d="M668.09,351.19c.29,0,.66,8.23.72,9a748,748,0,0,1-.33,113.51c-.28,3.64.6,8.32-3.19,9.79-2.62,1-8.89-.86-11.74-1.08q-14.17-1.1-28.4-1.45a546.88,546.88,0,0,0-56.82,1.55c-7.34.58-24.28,4.56-25-5.61-.88-11.95,1.09-24.79,1.45-36.8q1.07-36.21.75-72.43c0-3.14-1.35-9-.38-11.85,1.23-3.66,3.83-3.19,7.81-3.72q14-1.87,28.15-2.84a472.29,472.29,0,0,1,56.56-.6Q652.9,349.44,668.09,351.19Z" transform="translate(-26.88 -116.02)"/><path class="cls-8" d="M208.2,390.86a54.84,54.84,0,0,0,14,23.89c5.44,5.43,12.18,9.89,15.69,16.73a43.21,43.21,0,0,1-29.09-9.12c-2.43-1.92-5.05-4.23-8.13-4-2.89.24-5.15,2.85-5.87,5.66s-.21,5.78.45,8.6c3.33,14.19,10.25,27.26,17.51,39.9,1.93,3.37,4,6.88,7.42,8.8,3,1.73,6.67,1.93,10.15,2.07q31.08,1.26,62.19.29c20.19-.64,39.27-.66,59.46-1a62.41,62.41,0,0,0,9.27-.62,2.38,2.38,0,0,0,1.48-.66,2.44,2.44,0,0,0,.31-1.77l-.44-5.1A79.62,79.62,0,0,0,393.54,440c.7-1.54,1.35-3.39.48-4.83a5.44,5.44,0,0,0-2.52-1.86l-19.23-9a13.07,13.07,0,0,0-3.77-1.3,15,15,0,0,0-4.21.35,49.35,49.35,0,0,1-11.26.58,15.59,15.59,0,0,0-4.37.08,12.56,12.56,0,0,0-4,1.91c-3.49,2.27-7.36,4.9-11.46,4.13-2.59-.49-4.71-2.27-6.93-3.67-4.13-2.6-8.86-4-13.35-5.93a64.57,64.57,0,0,1-28.7-24.23c-1.39-2.15-1.4-2.7-3.6-3.38s-6,.18-8.37.22a576,576,0,0,1-65.81-2.54" transform="translate(-26.88 -116.02)"/><path class="cls-7" d="M499.94,169.84c.17,0,.66,5.07.72,5.57A467.14,467.14,0,0,1,504,245.66c-.07,2.26.62,5.13-1.66,6.16-1.57.71-5.48-.26-7.23-.3q-8.75-.24-17.48,0a335.35,335.35,0,0,0-34.82,2.72c-4.48.59-14.75,3.58-15.53-2.69-.92-7.37-.11-15.37-.27-22.81q-.48-22.44-1.82-44.85c-.11-1.94-1.11-5.51-.6-7.32.64-2.3,2.25-2.09,4.67-2.55q8.55-1.59,17.19-2.63a287.41,287.41,0,0,1,34.69-2.14Q490.56,169.24,499.94,169.84Z" transform="translate(-26.88 -116.02)"/><path class="cls-6" d="M188.85,335.77c-12.44,4.81-21.29,13.32-30.44,22.73-8.67,8.93-15.2,20.09-11.82,32.9,1.92,7.24,10.87,12.66,17.8,13.56-1.49,9.14-2.56,19.26,2.53,27,4.45,6.74,12.53,10,20.2,12.52a75.12,75.12,0,0,0,15.23,3.73c13.74,1.5,27.24-3.65,40-8.89,3.41-1.4,6.87-2.84,9.72-5.17,4-3.32,6.55-8.17,8.46-13s3.39-10,3.22-15.28-2.19-10.59-6.24-13.92a20.22,20.22,0,0,0,.86-25.35c4.94-3.24,9.65-7.19,12.36-12.45s3-12.06-.43-16.86c-2.59-3.57-6.82-5.54-10.94-7.14a56.58,56.58,0,0,0-16.22-4.16c-5.41-.4-10.82.41-16.18,1.21C214.07,329.08,201,331.05,188.85,335.77Z" transform="translate(-26.88 -116.02)"/><path class="cls-6" d="M334.24,365.61c-8.34,2-13.47,10.83-14.38,19.36-1.63,15.45,8.59,31.36,23.32,36.29,8.87,3,14,1.34,22.63-.33a3.78,3.78,0,0,1,3.77.89c11.36,8.08,23.52,13.79,37.89,10.87,10.72-2.19,20.53-9.52,24.64-19.66,7.53-.49,14.91-2,21.37-5.9,7.8-4.73,12.32-13.91,12.57-23s-3.39-18.05-8.9-25.31c-1.72-2.26-3.64-4.42-4.85-7a48.66,48.66,0,0,1-1.86-5.33,38.87,38.87,0,0,0-25.14-24.55,28.56,28.56,0,0,0-12.1-1.2c-6.89.94-12.92,4.95-18.67,8.86-3.8-5.35-10.25-8.31-16.72-9.4a36.77,36.77,0,0,0-25.17,4.65,32.2,32.2,0,0,0-14.72,20.73,60.19,60.19,0,0,0-.8,11.47L337.07,368C335.69,366.9,335.94,365.2,334.24,365.61Z" transform="translate(-26.88 -116.02)"/><path class="cls-9" d="M382.82,319.72c-11.74-4.62-26.56-3.18-38,1.81-7.25,3.17-13,8.67-19.89,12.52-9.63,5.41-21,7.1-31.91,5.84-10.61-1.22-16.16-9.89-24-16.32-5.74-4.74-13.38-7.53-20.58-9.08A76.73,76.73,0,0,0,210.42,316c-12.38,3.5-24.13,9.25-36.78,11.56-21.79,4-46.31-8.16-46.12-32.92,0-6,2.59-12.29,7.61-15.62-18,9.37-31,30.13-28.88,50.31s17.53,38.31,37.09,43.7a5.68,5.68,0,0,0,2.88.24,5.47,5.47,0,0,0,2.38-1.6c5.85-5.9,9-14,14.71-20.06,4.05-4.32,9.21-7.45,14.4-10.31a232.18,232.18,0,0,1,30.39-14c7-2.63,13.89-.27,21.31-.86s15-1,22.23.7,14.25,5.79,17.86,12.3,3,15.57-2.6,20.49c-2.92,2.56-6.76,3.77-10.15,5.68a27.37,27.37,0,0,1,2.17,23.13c18.91,6.67,41.95,5.16,61-.3a149.5,149.5,0,0,0,53.82-27.71,104.22,104.22,0,0,0,8.34-7.52A84.76,84.76,0,0,0,390.56,343c2.94-4.12,5.61-9.22,4-14S387.63,321.61,382.82,319.72Z" transform="translate(-26.88 -116.02)"/><path class="cls-10" d="M351.47,423.44l-18,8.23a4.82,4.82,0,0,0-2.2,1.57,5.68,5.68,0,0,0-.53,2.84c-.26,5.66-3.67,10.87-8.2,14.28s-10.09,5.2-15.66,6.25c-10.42,2-21.5,1.43-31.21-2.82s-17.91-12.49-20.87-22.67a72.16,72.16,0,0,0-11.45,6A50.53,50.53,0,0,1,217,445.59c-3.89.12-7.81-.2-11.63.54a5,5,0,0,0-2.67,1.19c-1.42,1.45-.87,3.85-.11,5.73,2.54,6.26,6.4,11.89,10.23,17.46,3.19,4.63,6.64,9.49,11.79,11.73,3.89,1.7,8.28,1.68,12.52,1.64l81.89-.82c14.11-.15,28.24-.29,42.28-1.68a1.8,1.8,0,0,0,2-2.51l-.7-5.1c13.52-7.25,23.52-19.19,30.88-32.66a7.53,7.53,0,0,0,1.27-4.26c-.24-2.38-2.48-4-4.54-5.21-3.64-2.18-7.36-4.24-11.14-6.15a24.17,24.17,0,0,0-4.74-2,25.91,25.91,0,0,0-6.22-.61l-16.54-.27C350.72,422.64,351.73,422.69,351.47,423.44Z" transform="translate(-26.88 -116.02)"/><path class="cls-11" d="M153.14,372.63a13.66,13.66,0,0,0,7.2,11.36c3.44,1.79,7.44,2,11.27,2.57,10,1.45,14.33,10.83,24.41,12.62,5.58,1,11.3.44,16.91-.33,9.49-1.29,19.08-3.26,27.39-8s15.23-12.72,16.69-22.17" transform="translate(-26.88 -116.02)"/><path class="cls-9" d="M261.09,373a20.63,20.63,0,0,1,.65,12.29c-.74,2.9-2.13,5.75-1.87,8.74a23,23,0,0,0,1.91,6,28.36,28.36,0,0,1-8.49,31.3,52.07,52.07,0,0,1-9.38,5.63c-11.76,5.91-24.32,11.37-37.48,11.09a63.08,63.08,0,0,1-13.78-2,46.6,46.6,0,0,1-11-3.92,30,30,0,0,1-15.27-28.2c.19-2.14.54-4.52-.76-6.23a8.84,8.84,0,0,0-3.08-2.14,30,30,0,0,1-15.12-30.69,4.89,4.89,0,0,1,1.14-2.74,1.89,1.89,0,0,1,2.67-.12c3.75.23,5.09,5.66,7.16,8.08a21.2,21.2,0,0,0,11.24,6.88c4.15,1,8.58.65,12.58,2.12,3.49,1.29,6.36,3.84,9.67,5.55,7.91,4.1,17.45,3.08,26.15,1.19,9.23-2,18.38-4.89,26.34-10,4.74-3,9.33-7.41,9.69-13a8.28,8.28,0,0,1,.44-3C256.42,365.72,260.36,371,261.09,373Z" transform="translate(-26.88 -116.02)"/><path class="cls-12" d="M539.32,265c-17.59-1.5-35.16,3.44-52.81,2.9a1.42,1.42,0,0,1-.86-.21,1.43,1.43,0,0,1-.42-1.1,403.06,403.06,0,0,1-1.27-46,205,205,0,0,1,24.2-2.58c9.81-.31,19.14-1.17,29,0C538.17,233.6,538.32,249.4,539.32,265Z" transform="translate(-26.88 -116.02)"/><path class="cls-9" d="M236.56,365.74c6.89-3.62,13.57-8.33,17.36-15.13s4-16.07-1.23-21.84c2.9-1.22,6.27-.53,9.14.77a20.73,20.73,0,0,1,11,11.58,16.63,16.63,0,0,1-2.26,15.59,25.89,25.89,0,0,1-7.57,6,104,104,0,0,1-30.5,11.88,47,47,0,0,1-10.29,1.26c-1.62,0-8.61,0-5.95-2.31,2-1.73,7.62-2.27,10.22-3.27A95.14,95.14,0,0,0,236.56,365.74Z" transform="translate(-26.88 -116.02)"/><path class="cls-9" d="M428.82,413.58c-1.59,8.06-8,14.67-15.67,17.73s-16.27,2.88-24.24.88c-6-1.51-11.93-4.14-16.15-8.68a5.53,5.53,0,0,0-2.51-1.9,5.25,5.25,0,0,0-2.44.26c-13.39,3.51-28.79,0-38.29-10s-11.83-26.72-4.19-38.27c2.11-3.19,5-6,8.62-7.23a4.29,4.29,0,0,0,2.59-1.49,3.63,3.63,0,0,0,.31-1.76c0-5.73-.12-11.51.9-17.16s3.35-11.24,7.63-15.06c6.38-5.7,14.37-8.55,22.86-9.57s17.55,1,24.07,6.52c1.14,1,2.27,2.62,1.37,3.82a3.24,3.24,0,0,1-1.59,1,34.34,34.34,0,0,0-19,17.81c-1.28,2.86-2.18,6.06-1.48,9.11.52,2.3,1.92,4.39,2.09,6.75.19,2.6-1.14,5-1.83,7.56-5.21,18.8,17.55,27.25,32,23.1,4.33-1.25,8.52-3.42,13-3.34,4.06.08,7.81,2,11.64,3.32,12.9,4.52,28.7,2.07,37.77-8.14-1.2,6.73-5.73,12.59-11.49,16.28s-12.64,5.32-19.47,5.62c-3.22.15-6.88.18-9.06,2.57" transform="translate(-26.88 -116.02)"/><path class="cls-13" d="M686.33,293.76l.33-48.23.21-32.54c.06-8.29.77-17.19-.06-25.44l-21-.4c-3.78-.08-7.29-.63-11.06-.35a71.33,71.33,0,0,1-11.6.14c-2.72-.25-5.4-.76-8.1-1.11a133.66,133.66,0,0,0-18.88-.68l-8.28.1c-2.44,0-4.29.94-6.76.37a.52.52,0,0,0-.35,0c-.5.31-.18,4.57-.16,5.12.07,2.23.07,4.47,0,6.7-.09,4.22-.39,8.44-.81,12.64a128.67,128.67,0,0,0-.44,19.73c.21,3.65.56,7.3.65,11,.07,3.17-.06,6.33-.19,9.5q-.86,20.28-1.7,40.56c.91-.69,1.54.3,2.66.55,5.3,1.19,11.19.63,16.57.73l19.42.37,38.84.73a58,58,0,0,1,9.86.75c.21,0,.48.14.49.36s-.46.12-.3,0" transform="translate(-26.88 -116.02)"/><path class="cls-13" d="M514,345.9l-4.62-22.63c-1.18-5.76-1.91-12-3.8-17.66L488.39,308c-3.08.42-6,.48-9,1.15a69.32,69.32,0,0,1-9.42,1.56c-2.25.17-4.5.14-6.75.24a129,129,0,0,0-15.46,1.91L441,314c-2,.32-3.36,1.19-5.45,1.11a.41.41,0,0,0-.29.05c-.36.27.53,3.19.63,3.57.38,1.54.72,3.09,1,4.65.2,1.13.38,2.26.55,3.39,4.93,2.89,7.89,7.52,9.86,12.88s2.65,10.5,6.58,14.84,8.18,8.21,10.17,13.85a36.19,36.19,0,0,1,.93,18.6l15.33-2.12,31.7-4.38a57,57,0,0,1,8.14-.72.77.77,0,0,1,.34.07l.32-.32Z" transform="translate(-26.88 -116.02)"/><path class="cls-14" d="M718.48,594.92H456.09a4.26,4.26,0,1,1,0-8.51H718.48A10.53,10.53,0,0,0,729,575.9V135a10.53,10.53,0,0,0-10.51-10.51H45.9A10.52,10.52,0,0,0,35.39,135V575.9A10.52,10.52,0,0,0,45.9,586.41h81.68a4.26,4.26,0,1,1,0,8.51H45.9a19,19,0,0,1-19-19V135a19,19,0,0,1,19-19H718.48a19,19,0,0,1,19,19V575.9A19,19,0,0,1,718.48,594.92Z" transform="translate(-26.88 -116.02)"/><path class="cls-15" d="M703.83,573.54H459.51a2.84,2.84,0,1,1,0-5.67H703.83a7.34,7.34,0,0,0,7.34-7.33V150.15a7.34,7.34,0,0,0-7.34-7.33H62.11a7.34,7.34,0,0,0-7.34,7.33V560.54a7.34,7.34,0,0,0,7.34,7.33h62a2.84,2.84,0,1,1,0,5.67h-62a13,13,0,0,1-13-13V150.15a13,13,0,0,1,13-13H703.83a13,13,0,0,1,13,13V560.54A13,13,0,0,1,703.83,573.54Z" transform="translate(-26.88 -116.02)"/><path class="cls-16" d="M233,486.57a4.26,4.26,0,0,1-2.17-7.92c14.11-8.34,17.63-20.6,10.16-35.47a4.25,4.25,0,1,1,7.6-3.81c9.52,18.95,4.63,35.94-13.43,46.61A4.26,4.26,0,0,1,233,486.57Z" transform="translate(-26.88 -116.02)"/><path class="cls-16" d="M361.28,485.48a4.26,4.26,0,0,1-4.21-3.72,71.92,71.92,0,0,0-20.57-41.28c-8.11-8.12-17.14-13.12-25.87-18-11.74-6.49-23.87-13.21-32.76-27.18a4.26,4.26,0,0,1,7.18-4.57c7.72,12.15,18.4,18.06,29.69,24.31,9.26,5.12,18.82,10.42,27.78,19.4a80.44,80.44,0,0,1,23,46.2,4.25,4.25,0,0,1-3.68,4.76A3.39,3.39,0,0,1,361.28,485.48Z" transform="translate(-26.88 -116.02)"/><path class="cls-16" d="M360.27,479.54a4.25,4.25,0,0,1-1.9-8.06,71.78,71.78,0,0,0,32.82-34.43,4.25,4.25,0,1,1,7.76,3.48,79.3,79.3,0,0,1-36.79,38.56A4.23,4.23,0,0,1,360.27,479.54Z" transform="translate(-26.88 -116.02)"/><path class="cls-16" d="M332.13,434.22h-1.4a4.25,4.25,0,0,1,0-8.5h.05c7.22.09,10.65-.43,15.51-3.5a4.25,4.25,0,0,1,4.54,7.19C344.58,433.38,339.65,434.22,332.13,434.22Z" transform="translate(-26.88 -116.02)"/><path class="cls-16" d="M220.18,485.6a4.23,4.23,0,0,1-3.25-1.51c-9.72-11.56-16.23-20.67-20.75-33a4.25,4.25,0,1,1,8-2.92c4.11,11.25,9.94,19.4,19.27,30.48a4.25,4.25,0,0,1-3.26,7Z" transform="translate(-26.88 -116.02)"/><path class="cls-17" d="M461.48,516.61H119.84a10.41,10.41,0,0,1-10.4-10.41V489.55a10.41,10.41,0,0,1,10.4-10.4H461.48a10.42,10.42,0,0,1,10.41,10.4V506.2A10.42,10.42,0,0,1,461.48,516.61Zm-341.64-29a1.93,1.93,0,0,0-1.9,1.9V506.2a1.93,1.93,0,0,0,1.9,1.9H461.48a1.93,1.93,0,0,0,1.9-1.9V489.55a1.93,1.93,0,0,0-1.9-1.9Z" transform="translate(-26.88 -116.02)"/><path class="cls-17" d="M420,618.61H163a43.16,43.16,0,0,1-43.12-43.12V512.35a4.25,4.25,0,0,1,4.25-4.25H458.86a4.25,4.25,0,0,1,4.26,4.25v63.14A43.17,43.17,0,0,1,420,618.61Zm-291.61-102v58.88A34.64,34.64,0,0,0,163,610.1H420a34.65,34.65,0,0,0,34.61-34.61V516.61Z" transform="translate(-26.88 -116.02)"/><path class="cls-17" d="M196.83,641h-26.1a12.27,12.27,0,0,1-12.26-12.26V614.36a4.26,4.26,0,0,1,4.26-4.26h42.1a4.25,4.25,0,0,1,4.25,4.26v14.36A12.27,12.27,0,0,1,196.83,641ZM167,618.61v10.11a3.75,3.75,0,0,0,3.75,3.75h26.1a3.75,3.75,0,0,0,3.74-3.75V618.61Z" transform="translate(-26.88 -116.02)"/><path class="cls-17" d="M411.46,641h-26.1a12.27,12.27,0,0,1-12.26-12.26V614.36a4.26,4.26,0,0,1,4.26-4.26h42.1a4.25,4.25,0,0,1,4.25,4.26v14.36A12.27,12.27,0,0,1,411.46,641Zm-29.85-22.37v10.11a3.75,3.75,0,0,0,3.75,3.75h26.1a3.75,3.75,0,0,0,3.74-3.75V618.61Z" transform="translate(-26.88 -116.02)"/><path class="cls-18" d="M262.53,397.37h-2.45a5,5,0,0,1,0-9.92h0c9,.06,17.29-.22,25.42-.87a211.08,211.08,0,0,0,33-5.07A137.72,137.72,0,0,0,347.76,371c12.12-6.07,27.18-14.8,36.2-28.47a48.56,48.56,0,0,0,7.65-32.76,45.13,45.13,0,0,0-8.3-20.42,82.54,82.54,0,0,0-12.11-9.72,5,5,0,0,1-6-5.75h0c.11-.6.2-1.21.26-1.82a23.12,23.12,0,0,0-28.51-24.95,5,5,0,0,1-6.15-4.91c.21-11.84-5.3-24.43-14.74-33.68-16.45-16.12-42.26-22.77-69-17.8s-48.32,20.35-57.84,41.18a5,5,0,0,1-5.34,2.83c-12-2-22.85,0-30.46,5.6C147,245.05,143.2,252,142,261c0,.39.05,2,.11,3.17.37,7.36.69,13.71-3.91,16-18.31,9.15-29.56,31.27-26.17,51.45,3,18,14.92,31,36.37,39.77a5,5,0,0,1-3.76,9.19c-24.55-10.05-38.81-26-42.4-47.32a60,60,0,0,1,30-61.19,65,65,0,0,0-.08-7.41,29.09,29.09,0,0,1,0-4.95c1.51-11.62,6.78-21.07,15.24-27.34,9-6.65,21.06-9.41,34.32-7.94,11.55-22,35-38.18,63.42-43.46,30-5.56,59.05,2.09,77.8,20.47,10,9.81,16.2,22.36,17.48,35.16a33.37,33.37,0,0,1,24.73,9,33.9,33.9,0,0,1,10.28,25.09,51.62,51.62,0,0,1,7.19,5c2.27,1.81,7.38,6.09,8.63,7.82a55.11,55.11,0,0,1,10.17,25.1,58.44,58.44,0,0,1-9.2,39.45c-10.32,15.64-26.82,25.26-40,31.89a147.57,147.57,0,0,1-31.3,11.23,221.33,221.33,0,0,1-34.56,5.33C278.68,397.07,270.86,397.37,262.53,397.37Zm120.7-108.1v0Z" transform="translate(-26.88 -116.02)"/><ellipse class="cls-19" cx="164.36" cy="192.28" rx="12.62" ry="8.5"/><circle class="cls-20" cx="318.26" cy="176.27" r="13.56"/><circle class="cls-20" cx="188.09" cy="176.27" r="13.56"/><ellipse class="cls-19" cx="344.8" cy="187.69" rx="12.62" ry="8.5"/><path class="cls-21" d="M663.07,485.43c-1.74,0-3.61-.05-5.76-.13s-4.21-.2-6.26-.31c-3.25-.17-6.6-.36-9.88-.41-9.12-.13-18.72-.21-28.55-.21-21.06,0-43.42.28-68.35.88a2.19,2.19,0,0,1-1.54-.61,2.11,2.11,0,0,1-.64-1.52c0-40.25.44-82.67,1.34-129.69a2.13,2.13,0,0,1,2-2.09C553.14,351,561,350,568.55,349c9.42-1.25,19.15-2.55,28.83-2.48,3.33,0,6.69.19,10,.36,3.85.2,7.83.41,11.71.35,9.81-.14,19.62.29,28.06.71,4,.2,8.16.58,12.2,1.14l.73.12a45.41,45.41,0,0,0,7.35.92,2.13,2.13,0,0,1,3.37,1.66c1.18,36.14,1.08,72.81,1,108.26q0,8.73,0,17.48c0,3.54-.24,5.57-1.49,6.81a4.74,4.74,0,0,1-3.73,1.07h-.92C664.75,485.41,663.93,485.43,663.07,485.43Zm-51.53-5.32h1.08c9.85,0,19.48.08,28.61.22,3.37.05,6.76.24,10,.42,2,.11,4.14.22,6.2.3,3.11.12,5.64.15,8,.09h1.77a18,18,0,0,0,.23-3.64q0-8.75,0-17.48c.1-34.62.2-70.4-.9-105.68a64.19,64.19,0,0,1-7.27-.95l-.6-.1c-3.91-.55-7.89-.92-11.82-1.11-8.37-.42-18.11-.85-27.78-.7-4,.06-8.08-.16-12-.36-3.2-.17-6.51-.34-9.74-.36-9.39-.06-19,1.22-28.25,2.45-7,.93-14.26,1.89-21.47,2.29-.85,45.35-1.27,86.43-1.3,125.45C570,480.39,591.37,480.11,611.54,480.11Zm55-128.21Zm0,0Z" transform="translate(-26.88 -116.02)"/><path class="cls-21" d="M427.94,258.17a2.13,2.13,0,0,1-2.12-2c-1.09-25.52-2-52.44-2.69-82.28a2.12,2.12,0,0,1,1.95-2.17c4.69-.4,9.48-1.26,14.12-2.1a128.41,128.41,0,0,1,17.87-2.35c2.07-.08,4.17,0,6.19,0,2.37,0,4.83.05,7.2-.09,6.08-.35,12.18-.34,17.41-.3,2.54,0,5.11.16,7.65.41l.48.06a36.44,36.44,0,0,0,4.19.39,2,2,0,0,1,.92-.3,2.14,2.14,0,0,1,2.28,2h0c1.31,17.42,2.12,34.74,2.69,47.88a2.13,2.13,0,0,1-4.25.19c-.54-12.55-1.31-28.91-2.51-45.52-1,0-2.21-.18-3.88-.4l-.34,0c-2.41-.24-4.85-.37-7.26-.38-5.17,0-11.18-.06-17.13.29-2.52.15-5,.12-7.5.09-2,0-4,0-6,0A124.31,124.31,0,0,0,440,173.77c-4.09.74-8.31,1.5-12.53,1.95.71,29,1.57,55.3,2.64,80.23a2.12,2.12,0,0,1-2,2.21Zm71.21-88.53h0Zm0,0h0Zm0,0Zm0,0Zm0,0Z" transform="translate(-26.88 -116.02)"/><path class="cls-21" d="M427.94,258.17a2.13,2.13,0,0,1-.14-4.25c15.41-1,29.25-1.83,42.3-2.38l2-.09c4-.17,7.43-.32,11.59-.44a2.13,2.13,0,1,1,.12,4.25c-4.12.12-7.56.27-11.53.44l-2.05.09c-13,.55-26.81,1.33-42.19,2.37Z" transform="translate(-26.88 -116.02)"/><path class="cls-22" d="M485.28,269.34a1.77,1.77,0,0,1-1.77-1.7c-.64-14.67-1.12-30.1-1.48-47.19a1.77,1.77,0,0,1,1.64-1.8c3.3-.25,6.67-.77,9.93-1.28s6.62-1,10-1.28c.9-.07,1.75-.12,2.58-.15,1.46-.06,2.92-.06,4.34-.05,1.67,0,3.4,0,5.06-.09,4.28-.23,8.56-.25,12.23-.26,1.78,0,3.59.07,5.37.2l.34,0a27,27,0,0,0,3,.2,1.84,1.84,0,0,1,.62-.17,1.78,1.78,0,0,1,1.91,1.62c1.09,13.14,1.63,26.48,2.15,39.37l.26,6.37a4.2,4.2,0,0,1-.72,3.18,2.94,2.94,0,0,1-2.23.81l-.38,0c-1.06.07-2.21.1-3.62.12h-2.73c-1.41,0-2.86,0-4.28,0-4,.12-8.15.27-12.39.44-9.13.38-18.83.9-29.65,1.57Zm.33-47.31c.34,15.71.78,30,1.36,43.65,10.13-.62,19.28-1.1,27.92-1.46,4.26-.18,8.44-.32,12.44-.44,1.47,0,3,0,4.39,0h2.69c1.34,0,2.43-.05,3.42-.11h0c0-.1,0-.2,0-.33l-.26-6.36c-.49-12.28-1-24.95-2-37.44-.65,0-1.45-.1-2.46-.2l-.24,0c-1.68-.12-3.38-.18-5.06-.18h0c-3.63,0-7.86,0-12,.25-1.77.1-3.54.1-5.26.09-1.39,0-2.82,0-4.21,0-.78,0-1.58.08-2.43.14-3.23.26-6.53.77-9.72,1.26C491.35,221.31,488.48,221.75,485.61,222Zm49.85-4.65a1.19,1.19,0,0,0,0,.33A1.22,1.22,0,0,1,535.46,217.38Z" transform="translate(-26.88 -116.02)"/><path class="cls-18" d="M215,372.49a81.25,81.25,0,0,0,31.59-5.31,75.9,75.9,0,0,0,7.33-3.24c1.2-.58,2.36-1.25,3.52-1.88s2.22-1.35,3.28-2.07a27.61,27.61,0,0,0,5.53-4.89,13.65,13.65,0,0,0,3-5.81,10.58,10.58,0,0,0-.53-6.1,15.54,15.54,0,0,0-3.69-5.52,18.09,18.09,0,0,0-2.64-2.13,22.27,22.27,0,0,0-3.11-1.72,34.67,34.67,0,0,0-7.08-2.26,63,63,0,0,0-7.79-1.14l-2-.19c-.66-.07-1.32-.14-2-.16l-4-.18a107.09,107.09,0,0,0-15.91.91A104.15,104.15,0,0,0,205,334.26l-3.78,1.22-3.72,1.42c-1.25.44-2.44,1-3.65,1.55l-1.82.8c-.61.26-1.19.59-1.78.88a93.21,93.21,0,0,0-13.58,8.15,91.09,91.09,0,0,0-12,10.16,74.79,74.79,0,0,0-5.11,5.79,52.71,52.71,0,0,0-4.22,6.21,31.89,31.89,0,0,0-2.85,6.53,21.49,21.49,0,0,0-.93,6.56,18.05,18.05,0,0,0,1.38,6.25c.25.49.44,1,.72,1.49s.53,1,.83,1.41a15.83,15.83,0,0,0,2,2.53,26.35,26.35,0,0,0,11.93,6.84h0a5,5,0,0,1,3.6,5.73,80.64,80.64,0,0,0-1.41,9.44,22.81,22.81,0,0,0,.76,8.28,9.25,9.25,0,0,0,.32.93c.11.31.22.62.37.95.27.66.58,1.31.91,1.94a25.45,25.45,0,0,0,2.26,3.55,21.16,21.16,0,0,0,6.11,5.42,36.1,36.1,0,0,0,8.22,3.37,51.69,51.69,0,0,0,9.12,1.68,75.33,75.33,0,0,0,18.95-.7,68.47,68.47,0,0,0,18.07-5.41,46.56,46.56,0,0,0,14.79-10.63,30.74,30.74,0,0,0,4.9-7.21,25,25,0,0,0,2.37-8.14,23.18,23.18,0,0,0-.44-8.32,18.68,18.68,0,0,0-3.42-7.15l-.08-.11a5,5,0,0,1,7.83-6.09,28.51,28.51,0,0,1,5.32,11,33.35,33.35,0,0,1,.65,11.84,37.58,37.58,0,0,1-1.17,5.77,35.67,35.67,0,0,1-2.12,5.5,40.3,40.3,0,0,1-6.46,9.53,56.12,56.12,0,0,1-17.94,13,77.67,77.67,0,0,1-20.71,6.23,84.58,84.58,0,0,1-21.52.78,62.81,62.81,0,0,1-10.83-2,46,46,0,0,1-10.51-4.35,30.94,30.94,0,0,1-9-7.95,34.59,34.59,0,0,1-3.18-5c-.46-.87-.88-1.76-1.25-2.66-.2-.43-.38-.92-.56-1.41s-.35-1-.49-1.47a32.44,32.44,0,0,1-1.17-11.82,89.68,89.68,0,0,1,1.56-10.64l3.66,5.74A36.8,36.8,0,0,1,157,408.1a34.3,34.3,0,0,1-4.06-2.63,30.7,30.7,0,0,1-3.72-3.25,27,27,0,0,1-3.22-4,30.64,30.64,0,0,1-2.44-4.41,28,28,0,0,1-2.37-9.9,31,31,0,0,1,1.21-9.9,41.77,41.77,0,0,1,3.7-8.77A64.58,64.58,0,0,1,157.15,351a107.56,107.56,0,0,1,62.2-29.24,115.7,115.7,0,0,1,17.36-.61l4.34.3c.72,0,1.44.12,2.16.22l2.16.27A69.11,69.11,0,0,1,254,323.5a42.6,42.6,0,0,1,8.67,3.08,29.73,29.73,0,0,1,4.12,2.44,25.29,25.29,0,0,1,3.73,3.21,23,23,0,0,1,5.22,8.43,18.64,18.64,0,0,1,1,5.07,17.91,17.91,0,0,1-.49,5.22,20.77,20.77,0,0,1-4.77,8.75,34.91,34.91,0,0,1-7.09,5.94q-1.89,1.22-3.86,2.24c-1.3.65-2.57,1.33-3.9,1.91a83.1,83.1,0,0,1-8,3.21,85.12,85.12,0,0,1-34,4.37,2.44,2.44,0,0,1,.26-4.88Z" transform="translate(-26.88 -116.02)"/><path class="cls-18" d="M263.46,365.08a22.38,22.38,0,0,1,3.36,8.94,23.92,23.92,0,0,1-.51,9.24,21.85,21.85,0,0,1-4.13,8.29,26.49,26.49,0,0,1-6.67,5.68,65.62,65.62,0,0,1-29.81,9.7,2.66,2.66,0,0,1-.59-5.28h0a59.2,59.2,0,0,0,13.77-3.81,58.6,58.6,0,0,0,12.33-6.91,18.48,18.48,0,0,0,4.43-4.33,13.76,13.76,0,0,0,2.1-5.26,14.9,14.9,0,0,0-.15-5.69,12.62,12.62,0,0,0-2.27-4.85,5,5,0,0,1,7.89-6l.22.3Z" transform="translate(-26.88 -116.02)"/><path class="cls-18" d="M262.33,420.2a5,5,0,0,1-4.18-7.63,10.48,10.48,0,0,0-3.94-14.91,5,5,0,0,1,4.64-8.77,20.4,20.4,0,0,1,7.67,29A5,5,0,0,1,262.33,420.2Z" transform="translate(-26.88 -116.02)"/><path class="cls-9" d="M183.24,265.88a16.58,16.58,0,0,1,.16-9.52,19.45,19.45,0,0,1,5-8.27,19.86,19.86,0,0,1,8.68-5,17.6,17.6,0,0,1,10.78.35L201,247a21.69,21.69,0,0,1,4.87-8.8,22.4,22.4,0,0,1,7.83-5.63,19.33,19.33,0,0,1,9.43-1.47,16.13,16.13,0,0,1,8.78,3.55,2.4,2.4,0,0,1-2.75,3.9l-.09-.05a10.74,10.74,0,0,0-6.13-1.33,12.52,12.52,0,0,0-5.93,2,14.3,14.3,0,0,0-4.35,4.41A12.16,12.16,0,0,0,210.7,249v.13a4.45,4.45,0,0,1-6.84,3.42,8.24,8.24,0,0,0-5-1,12,12,0,0,0-5.63,2.07,12.88,12.88,0,0,0-4.12,4.86,11.35,11.35,0,0,0-1.2,6.31v.1a2.37,2.37,0,0,1-4.63,1Z" transform="translate(-26.88 -116.02)"/><path class="cls-9" d="M401.14,357.44a14,14,0,0,1,6.41-4.72,14.45,14.45,0,0,1,8.32-.54,15.26,15.26,0,0,1,7.5,4.39,15.68,15.68,0,0,1,4.1,8.1v0l-7-4a16.75,16.75,0,0,1,8.73-.82,16.25,16.25,0,0,1,7.68,3.46,15.61,15.61,0,0,1,4.66,6.63,15.13,15.13,0,0,1,.73,7.73,2.4,2.4,0,0,1-4.76-.33v-.11a9.6,9.6,0,0,0-1.49-4.75,8.76,8.76,0,0,0-3.39-3.17,8.31,8.31,0,0,0-4.23-.86,7.42,7.42,0,0,0-3.78,1.24,4.37,4.37,0,0,1-6.06-1.07,4.55,4.55,0,0,1-.7-1.64l-.25-1.29h0a6.35,6.35,0,0,0-.92-3.67,7.29,7.29,0,0,0-3-2.87,7.77,7.77,0,0,0-4.47-.64,8.6,8.6,0,0,0-4.46,2l-.09.08a2.38,2.38,0,0,1-3.5-3.2Z" transform="translate(-26.88 -116.02)"/><path class="cls-23" d="M686.42,295.84h0l-2.95,0c-27.76-.43-56.45-.88-84.67-2.38a2.12,2.12,0,0,1-1.5-.73,2.16,2.16,0,0,1-.5-1.6c1-10.21,1-21.77.93-32.95,0-7.58-.05-15.42.27-22.56.21-5,.23-10.15.24-15.11,0-3.9,0-7.93.12-11.91.07-2.52,0-5.2-.1-8-.16-5.1-.33-10.38.45-15.07a2.13,2.13,0,0,1,1.82-1.77,71.42,71.42,0,0,1,15.12-.88c7.82.48,15.75.93,23.58,1.34,8.52.45,17.25.45,25.71.44,7.1,0,14.43,0,21.63.26a2.13,2.13,0,0,1,2.05,2.09c.25,17.36.11,35.7,0,53.42s-.27,36,0,53.33a2.12,2.12,0,0,1-.63,1.54A2.16,2.16,0,0,1,686.42,295.84Zm-85.22-6.56c27.43,1.4,55.31,1.84,82.3,2.26h.76c-.2-16.71-.07-34.24.06-51.23s.26-34.59,0-51.3c-6.48-.19-13.07-.19-19.46-.18-8.5,0-17.3,0-25.93-.45-7.85-.41-15.79-.87-23.61-1.34a61,61,0,0,0-12.71.64,88.88,88.88,0,0,0-.18,12.7c.09,2.76.18,5.63.1,8.28-.1,3.92-.11,7.93-.12,11.8,0,5,0,10.18-.25,15.28-.3,7.05-.28,14.49-.26,22.37C602,268.61,602,279.44,601.2,289.28Z" transform="translate(-26.88 -116.02)"/><circle class="cls-20" cx="438.79" cy="62.1" r="3.81"/><circle class="cls-20" cx="484.84" cy="110.11" r="3.81"/><circle class="cls-20" cx="618.39" cy="80.09" r="3.81"/><path class="cls-23" d="M467.64,388.7a2.12,2.12,0,0,1-.26-4.23c17-2.09,34.13-4.51,50.75-6.85l.17,0c-2.57-11.36-5-23.29-7.35-34.85s-4.81-23.71-7.4-35.14c-5.22.68-10.49,1.49-15.61,2.29-6.92,1.07-14.07,2.18-21.17,2.95-6.5.71-13,1.39-19.4,2a56.79,56.79,0,0,0-9.84,1.93,60.94,60.94,0,0,0,1.65,8.12c.2.78.39,1.55.57,2.32.33,1.37.57,2.48.75,3.48a2.13,2.13,0,0,1-4.19.75c-.16-.92-.38-2-.69-3.24-.18-.75-.37-1.51-.56-2.27a49.61,49.61,0,0,1-1.89-10.72,2.12,2.12,0,0,1,1.57-2.08,67.26,67.26,0,0,1,12.19-2.53c6.37-.64,12.89-1.32,19.39-2,7-.76,14.1-1.86,21-2.92,5.77-.9,11.74-1.83,17.64-2.55a2.12,2.12,0,0,1,2.33,1.64c2.77,12,5.36,24.78,7.86,37.11s5.09,25,7.84,37a2.12,2.12,0,0,1-1.78,2.58l-2.46.35c-16.63,2.34-33.83,4.77-50.82,6.86Z" transform="translate(-26.88 -116.02)"/><circle class="cls-20" cx="582.7" cy="242.57" r="3.81"/><path class="cls-18" d="M271.53,304.38a28.14,28.14,0,0,0,12.82,7.4,28.8,28.8,0,0,0,15.14.05h0a2.32,2.32,0,0,1,1.4,4.43,34.25,34.25,0,0,1-17.85,1.25,34.69,34.69,0,0,1-16.39-8l0,0a3.55,3.55,0,0,1,4.7-5.32Z" transform="translate(-26.88 -116.02)"/><path class="cls-16" d="M609.53,358a1.72,1.72,0,0,1-.44-.06,1.76,1.76,0,0,1-1.27-2.15c14.84-57.65,26.7-109,36.22-156.74-24.81,5.16-43.66,9.63-60.36,13.59-23.09,5.48-43,10.21-71.66,15.21a1.77,1.77,0,0,1-.61-3.49c28.53-5,48.42-9.7,71.45-15.17,17.3-4.1,36.92-8.75,63.08-14.15a1.77,1.77,0,0,1,2.1,2.08c-9.62,48.59-21.65,100.78-36.79,159.55A1.78,1.78,0,0,1,609.53,358Z" transform="translate(-26.88 -116.02)"/><circle class="cls-20" cx="446.41" cy="203.53" r="3.81"/><path class="cls-18" d="M401.1,438.59c-12.24,0-23.55-4.32-31.84-12.15a43.49,43.49,0,0,1-20.88,1.18c-15.37-2.86-26.72-11.95-31.12-24.94-2.07-6.11-2.8-10.17-1.33-16.72a5,5,0,1,1,9.68,2.17c-1,4.3-.6,6.5,1.05,11.36,4.57,13.48,18,17.34,23.54,18.38a33.49,33.49,0,0,0,18.55-1.77,5,5,0,0,1,5.52,1.29c7.09,7.85,17.86,11.93,29.53,11.19a24.27,24.27,0,0,0,9.45-2.2c5.78-2.84,10.77-9.67,13.33-18.29h0a5,5,0,0,1,6.17-3.34,5.32,5.32,0,0,1,.64.24c1.84.29,7,.66,8.24.68a20,20,0,0,0,9-2.55c9-5.37,10.65-14.8,10.8-19.95.31-10.48-4.52-20.92-12-26A9.49,9.49,0,0,1,446,353.6a10.48,10.48,0,0,1-1-4.32l0-.28c-.54-7.11-5.49-13.95-13.26-18.29a32.55,32.55,0,0,0-3.31-1.6c-9.18-3.78-21.71-3.5-29,5.66a5,5,0,0,1-7.75-6.19c9.11-11.42,25.4-14.89,40.55-8.64a39.9,39.9,0,0,1,4.37,2.1c10.68,6,17.53,15.78,18.31,26.22l0,.33c0,.1,0,.2,0,.3l.07.05c10.36,7,16.79,20.56,16.38,34.51-.36,12.23-6.07,22.5-15.65,28.19a29.81,29.81,0,0,1-13.63,3.93c-1.17.08-6-.33-6-.33l-1.4-.12c-3.68,9.36-9.73,16.59-17,20.17a34.58,34.58,0,0,1-13.2,3.2C403.31,438.56,402.2,438.59,401.1,438.59Z" transform="translate(-26.88 -116.02)"/><path class="cls-3" d="M124,438.32a1.77,1.77,0,0,0,0,3.54A1.77,1.77,0,0,0,124,438.32Z" transform="translate(-26.88 -116.02)"/><path class="cls-3" d="M135.62,447.73a2.69,2.69,0,0,0-.73-1.25l-.57-.44a2.77,2.77,0,0,0-1.43-.39h-.49a2.3,2.3,0,0,0-1.1.24,2.6,2.6,0,0,0-1.5,1.5,2.3,2.3,0,0,0-.24,1.1l.1.75a2.88,2.88,0,0,0,.73,1.25l.57.44a2.81,2.81,0,0,0,1.44.39h.49a2.15,2.15,0,0,0,1.09-.24,2.11,2.11,0,0,0,.91-.59,2.08,2.08,0,0,0,.59-.91,2.05,2.05,0,0,0,.24-1.09Z" transform="translate(-26.88 -116.02)"/><path class="cls-3" d="M154.12,444.66c-3.65,0-3.65,5.67,0,5.67S157.78,444.66,154.12,444.66Z" transform="translate(-26.88 -116.02)"/><path class="cls-3" d="M140.79,425.41c-3.65,0-3.66,5.67,0,5.67S144.44,425.41,140.79,425.41Z" transform="translate(-26.88 -116.02)"/><path class="cls-3" d="M131.9,215.56c-3.65,0-3.65,5.67,0,5.67S135.56,215.56,131.9,215.56Z" transform="translate(-26.88 -116.02)"/><path class="cls-3" d="M448.52,454.31a2.13,2.13,0,0,0-.58-.92,2.15,2.15,0,0,0-.91-.58,2.2,2.2,0,0,0-1.1-.25l-.75.1a2.88,2.88,0,0,0-1.25.73l-.45.58a2.86,2.86,0,0,0-.38,1.43v.49a2,2,0,0,0,.24,1.09,2.15,2.15,0,0,0,.59.92,2.09,2.09,0,0,0,.91.58,2.16,2.16,0,0,0,1.09.25l.76-.1a2.93,2.93,0,0,0,1.25-.73l.44-.58a2.77,2.77,0,0,0,.39-1.43v-.49A2.14,2.14,0,0,0,448.52,454.31Z" transform="translate(-26.88 -116.02)"/><path class="cls-3" d="M492.84,416.52c-3.65,0-3.65,5.67,0,5.67S496.5,416.52,492.84,416.52Z" transform="translate(-26.88 -116.02)"/><path class="cls-3" d="M503.24,454.38a2.17,2.17,0,0,0-.91-.59,2.3,2.3,0,0,0-1.1-.24,2.83,2.83,0,0,0-2,.83,3,3,0,0,0-.83,2v1a2.92,2.92,0,0,0,.83,2,3.23,3.23,0,0,0,2,.83,2.88,2.88,0,0,0,2-.83,3,3,0,0,0,.83-2v-1A2.94,2.94,0,0,0,503.24,454.38Z" transform="translate(-26.88 -116.02)"/><path class="cls-3" d="M529.38,320.51c-4.56,0-4.57,7.09,0,7.09S534,320.51,529.38,320.51Z" transform="translate(-26.88 -116.02)"/><path class="cls-3" d="M575.3,326.93c-4.56,0-4.57,7.09,0,7.09S579.87,326.93,575.3,326.93Z" transform="translate(-26.88 -116.02)"/><path class="cls-3" d="M564.93,276.08c-4.56,0-4.57,7.08,0,7.08S569.5,276.08,564.93,276.08Z" transform="translate(-26.88 -116.02)"/><path class="cls-3" d="M510.62,493.82c-4.57,0-4.57,7.09,0,7.09S515.18,493.82,510.62,493.82Z" transform="translate(-26.88 -116.02)"/><path class="cls-3" d="M687.38,486.91c-4.56,0-4.57,7.09,0,7.09S692,486.91,687.38,486.91Z" transform="translate(-26.88 -116.02)"/><path class="cls-3" d="M695.74,442.11a3.62,3.62,0,0,0-.91-1.56l-.72-.56a3.51,3.51,0,0,0-1.79-.48h-.49a3.85,3.85,0,0,0-2.51,1,4,4,0,0,0-1,2.5c0,.32.09.63.13.95a3.52,3.52,0,0,0,.91,1.56l.72.55a3.52,3.52,0,0,0,1.79.49h.49a3.42,3.42,0,0,0,3.24-2.18,2.68,2.68,0,0,0,.3-1.37Z" transform="translate(-26.88 -116.02)"/><path class="cls-3" d="M353.6,177.82c-4.56,0-4.57,7.09,0,7.09S358.17,177.82,353.6,177.82Z" transform="translate(-26.88 -116.02)"/><path class="cls-3" d="M376.81,230.65c-4.56,0-4.57,7.09,0,7.09S381.38,230.65,376.81,230.65Z" transform="translate(-26.88 -116.02)"/><path class="cls-3" d="M531.14,171.11a3.27,3.27,0,0,0-1.88-1.88,2.64,2.64,0,0,0-1.36-.3l-.95.13a3.43,3.43,0,0,0-1.56.91l-.55.71a3.54,3.54,0,0,0-.49,1.79v.5a4,4,0,0,0,1,2.5,3.85,3.85,0,0,0,2.51,1l.94-.12a3.54,3.54,0,0,0,1.56-.92l.56-.71a3.53,3.53,0,0,0,.48-1.79v-.5A2.66,2.66,0,0,0,531.14,171.11Z" transform="translate(-26.88 -116.02)"/><path class="cls-3" d="M679,168.44c-4.56,0-4.57,7.08,0,7.08S683.56,168.44,679,168.44Z" transform="translate(-26.88 -116.02)"/><path class="cls-3" d="M191.11,179.93a3.46,3.46,0,0,0-.91-1.57l-.71-.55a3.65,3.65,0,0,0-1.79-.49h-.5a3.63,3.63,0,0,0-3.54,3.55l.13.94a3.43,3.43,0,0,0,.91,1.56l.71.56a3.53,3.53,0,0,0,1.79.48h.5a3.63,3.63,0,0,0,3.54-3.54C191.2,180.55,191.16,180.24,191.11,179.93Z" transform="translate(-26.88 -116.02)"/><path class="cls-3" d="M154.61,174.56c-6.84,0-6.85,10.64,0,10.64S161.47,174.56,154.61,174.56Z" transform="translate(-26.88 -116.02)"/><path class="cls-3" d="M561.66,310.79a5.25,5.25,0,0,0-1.37-2.34l-1.07-.83a5.29,5.29,0,0,0-2.68-.73H556a4,4,0,0,0-2,.46,3.92,3.92,0,0,0-1.71,1.1,4,4,0,0,0-1.1,1.71,4.12,4.12,0,0,0-.46,2c.07.47.13.94.19,1.41a5.43,5.43,0,0,0,1.37,2.35l1.08.83a5.26,5.26,0,0,0,2.68.72h.5a5.84,5.84,0,0,0,3.75-1.55,5.92,5.92,0,0,0,1.56-3.76C561.79,311.74,561.73,311.27,561.66,310.79Z" transform="translate(-26.88 -116.02)"/><path class="cls-3" d="M687.88,399.72c-6.85,0-6.86,10.63,0,10.63S694.73,399.72,687.88,399.72Z" transform="translate(-26.88 -116.02)"/><path class="cls-3" d="M486.34,465.69a3.92,3.92,0,0,0-1.1-1.71,5.84,5.84,0,0,0-3.76-1.55l-1.41.19a5.32,5.32,0,0,0-2.35,1.36l-.83,1.08a5.26,5.26,0,0,0-.72,2.68v.5a3.88,3.88,0,0,0,.46,2,4.65,4.65,0,0,0,2.81,2.81,3.88,3.88,0,0,0,2,.46l1.42-.19a5.32,5.32,0,0,0,2.34-1.36l.83-1.08a5.17,5.17,0,0,0,.73-2.68v-.5A3.94,3.94,0,0,0,486.34,465.69Z" transform="translate(-26.88 -116.02)"/><path class="cls-3" d="M662.69,164.19c-6.84,0-6.85,10.64,0,10.64S669.55,164.19,662.69,164.19Z" transform="translate(-26.88 -116.02)"/><path class="cls-3" d="M458.28,436.26c-6.84,0-6.86,10.63,0,10.63S465.13,436.26,458.28,436.26Z" transform="translate(-26.88 -116.02)"/><path class="cls-3" d="M181.47,464.85a5.38,5.38,0,0,0-1.37-2.35l-1.08-.83a5.37,5.37,0,0,0-2.68-.73h-.49a4.09,4.09,0,0,0-2,.46,4,4,0,0,0-1.71,1.1,3.92,3.92,0,0,0-1.1,1.71,4,4,0,0,0-.46,2.05l.19,1.41a5.28,5.28,0,0,0,1.37,2.35l1.07.83a5.4,5.4,0,0,0,2.69.73h.49a4.12,4.12,0,0,0,2-.46,4.79,4.79,0,0,0,2.81-2.81,4.12,4.12,0,0,0,.46-2.05Z" transform="translate(-26.88 -116.02)"/><path class="cls-3" d="M128.94,469.29a1.42,1.42,0,0,0,0,2.83A1.42,1.42,0,0,0,128.94,469.29Z" transform="translate(-26.88 -116.02)"/><path class="cls-3" d="M168,207.59a1.42,1.42,0,0,0,0,2.84A1.42,1.42,0,0,0,168,207.59Z" transform="translate(-26.88 -116.02)"/><path class="cls-3" d="M377.38,206.47a2.19,2.19,0,0,0-.55-.94l-.43-.33a2.12,2.12,0,0,0-1.07-.29h-.5a1.67,1.67,0,0,0-.82.18,1.7,1.7,0,0,0-.68.44,1.54,1.54,0,0,0-.44.69,1.52,1.52,0,0,0-.18.82l.07.56a2,2,0,0,0,.55.94l.43.33a2,2,0,0,0,1.07.29h.5a1.61,1.61,0,0,0,.81-.18,1.58,1.58,0,0,0,.69-.44,1.6,1.6,0,0,0,.44-.68,1.67,1.67,0,0,0,.18-.82Z" transform="translate(-26.88 -116.02)"/><path class="cls-3" d="M403,205.9c-2.74,0-2.75,4.25,0,4.25S405.72,205.9,403,205.9Z" transform="translate(-26.88 -116.02)"/><path class="cls-3" d="M347.18,216.76c-2.74,0-2.74,4.25,0,4.25S349.92,216.76,347.18,216.76Z" transform="translate(-26.88 -116.02)"/><path class="cls-3" d="M542.29,293.37a2.09,2.09,0,0,0-.55-.94l-.43-.33a2.12,2.12,0,0,0-1.07-.29h-.49a1.53,1.53,0,0,0-.82.19,1.61,1.61,0,0,0-.69.43,1.81,1.81,0,0,0-.44.69,1.64,1.64,0,0,0-.18.82c0,.19,0,.38.08.56a2.11,2.11,0,0,0,.54.94l.43.33a2.17,2.17,0,0,0,1.08.3h.49a1.55,1.55,0,0,0,.82-.19,1.93,1.93,0,0,0,1.12-1.12,1.57,1.57,0,0,0,.19-.82C542.34,293.75,542.32,293.56,542.29,293.37Z" transform="translate(-26.88 -116.02)"/><path class="cls-3" d="M576.29,303.66c-2.74,0-2.75,4.26,0,4.26S579,303.66,576.29,303.66Z" transform="translate(-26.88 -116.02)"/><path class="cls-3" d="M567,295.35a2.09,2.09,0,0,0-.55-.94l-.43-.33a2.12,2.12,0,0,0-1.07-.29h-.49a1.62,1.62,0,0,0-.82.18,1.58,1.58,0,0,0-.69.44,1.6,1.6,0,0,0-.44.68,1.67,1.67,0,0,0-.18.82c0,.19.05.38.07.57a2.29,2.29,0,0,0,.55.94l.43.33a2.13,2.13,0,0,0,1.08.29h.49a1.67,1.67,0,0,0,.82-.18,1.7,1.7,0,0,0,.68-.44,2.45,2.45,0,0,0,.63-1.51C567,295.73,567,295.54,567,295.35Z" transform="translate(-26.88 -116.02)"/><path class="cls-3" d="M695.78,175.28c-2.74,0-2.75,4.26,0,4.26S698.52,175.28,695.78,175.28Z" transform="translate(-26.88 -116.02)"/><path class="cls-3" d="M682.41,421.5a1.49,1.49,0,0,0-.44-.69l-.43-.33a2.12,2.12,0,0,0-1.07-.29l-.57.08a2.08,2.08,0,0,0-.93.54l-.5.5a1.6,1.6,0,0,0-.44.68,2,2,0,0,0,0,1.64,1.6,1.6,0,0,0,.44.68l.43.34a2.13,2.13,0,0,0,1.08.29l.56-.08a2.09,2.09,0,0,0,.94-.55l.49-.49a1.51,1.51,0,0,0,.44-.68,1.57,1.57,0,0,0,.19-.82A1.53,1.53,0,0,0,682.41,421.5Z" transform="translate(-26.88 -116.02)"/><path class="cls-3" d="M695.78,424.14c-2.74,0-2.75,4.25,0,4.25S698.52,424.14,695.78,424.14Z" transform="translate(-26.88 -116.02)"/><path class="cls-3" d="M688.39,460.31a2.16,2.16,0,0,0-1.5-.62,2.19,2.19,0,0,0-1.51.62,2.23,2.23,0,0,0-.62,1.51v1a2.23,2.23,0,0,0,.62,1.51,2.19,2.19,0,0,0,1.51.62,2.1,2.1,0,0,0,1.5-.62,2.23,2.23,0,0,0,.62-1.51v-1A2.19,2.19,0,0,0,688.39,460.31Z" transform="translate(-26.88 -116.02)"/><path class="cls-3" d="M502.22,476.48c-2.74,0-2.74,4.25,0,4.25S505,476.48,502.22,476.48Z" transform="translate(-26.88 -116.02)"/><path class="cls-3" d="M521,465.62c-2.73,0-2.74,4.25,0,4.25S523.73,465.62,521,465.62Z" transform="translate(-26.88 -116.02)"/><path class="cls-3" d="M479,447.35c-2.73,0-2.74,4.25,0,4.25S481.76,447.35,479,447.35Z" transform="translate(-26.88 -116.02)"/><path class="cls-3" d="M464.2,459.69c-2.73,0-2.74,4.25,0,4.25S466.94,459.69,464.2,459.69Z" transform="translate(-26.88 -116.02)"/><path class="cls-3" d="M428.16,467.1c-2.74,0-2.74,4.25,0,4.25S430.9,467.1,428.16,467.1Z" transform="translate(-26.88 -116.02)"/><path class="cls-3" d="M428.16,436c-2.74,0-2.74,4.25,0,4.25S430.9,436,428.16,436Z" transform="translate(-26.88 -116.02)"/><path class="cls-3" d="M481.48,503.63c-2.73,0-2.74,4.26,0,4.26S484.22,503.63,481.48,503.63Z" transform="translate(-26.88 -116.02)"/><path class="cls-3" d="M483.43,487.66A1.7,1.7,0,0,0,483,487a2.45,2.45,0,0,0-1.51-.63l-.56.08a2.09,2.09,0,0,0-.94.55l-.33.43a2.12,2.12,0,0,0-.29,1.07V489a2.37,2.37,0,0,0,.62,1.51,1.7,1.7,0,0,0,.68.44,1.67,1.67,0,0,0,.82.18l.57-.08a2.17,2.17,0,0,0,.94-.54l.33-.43a2.13,2.13,0,0,0,.29-1.08v-.49A1.64,1.64,0,0,0,483.43,487.66Z" transform="translate(-26.88 -116.02)"/><path class="cls-3" d="M494.82,493.76c-2.74,0-2.75,4.25,0,4.25S497.56,493.76,494.82,493.76Z" transform="translate(-26.88 -116.02)"/><path class="cls-3" d="M515.06,293.79c-2.74,0-2.74,4.25,0,4.25S517.8,293.79,515.06,293.79Z" transform="translate(-26.88 -116.02)"/><path class="cls-3" d="M534.32,306.62c-2.74,0-2.75,4.26,0,4.26S537.06,306.62,534.32,306.62Z" transform="translate(-26.88 -116.02)"/><path class="cls-3" d="M551.6,264.66c-2.74,0-2.74,4.25,0,4.25S554.34,264.66,551.6,264.66Z" transform="translate(-26.88 -116.02)"/><path class="cls-3" d="M515,188a1.63,1.63,0,0,0-.44-.69,1.67,1.67,0,0,0-.69-.44,1.62,1.62,0,0,0-.82-.18l-.56.08a2.17,2.17,0,0,0-.94.54l-.33.43a2.16,2.16,0,0,0-.29,1.08v.49a1.64,1.64,0,0,0,.18.82,1.7,1.7,0,0,0,.44.69,1.67,1.67,0,0,0,.69.44,1.61,1.61,0,0,0,.81.18l.57-.08a2.17,2.17,0,0,0,.94-.54l.33-.44a2.1,2.1,0,0,0,.29-1.07v-.49A1.62,1.62,0,0,0,515,188Z" transform="translate(-26.88 -116.02)"/><path class="cls-3" d="M535.87,199.56a2.17,2.17,0,0,0-.54-.94l-.5-.49a1.51,1.51,0,0,0-.68-.44,1.57,1.57,0,0,0-.82-.19,1.55,1.55,0,0,0-.82.19,1.6,1.6,0,0,0-.69.44l-.33.43a2.12,2.12,0,0,0-.29,1.07c0,.19,0,.38.08.57a2.08,2.08,0,0,0,.54.93l.5.5a1.6,1.6,0,0,0,.68.44,1.67,1.67,0,0,0,.82.18,2.37,2.37,0,0,0,1.51-.62l.33-.43a2.13,2.13,0,0,0,.29-1.08C535.92,199.94,535.9,199.75,535.87,199.56Z" transform="translate(-26.88 -116.02)"/><path class="cls-3" d="M559,179.73c-2.73,0-2.74,4.25,0,4.25S561.75,179.73,559,179.73Z" transform="translate(-26.88 -116.02)"/><path class="cls-3" d="M476.55,155c-2.74,0-2.75,4.25,0,4.25S479.29,155,476.55,155Z" transform="translate(-26.88 -116.02)"/></svg>