<svg id="Layer_1" data-name="Layer 1" xmlns="http://www.w3.org/2000/svg" viewBox="0 0 882.01 854.64"><defs><style>.cls-1{fill:#d2b299;}.cls-2{fill:#6a7f90;}.cls-3{fill:#c9ef92;}.cls-4{fill:#aa8c77;}.cls-5{fill:#acd16b;}.cls-6{fill:#576a77;}.cls-7{fill:#605147;}.cls-8{fill:#232e33;}.cls-9{fill:#778e39;}.cls-10{fill:#f2a39e;}.cls-11{fill:#473426;}</style></defs><path class="cls-1" d="M657.24,620.5c-2,3.82,3.08,9.43-.72,12.88-3.42,3.11-13,3.2-17.44,3.74-12.42,1.52-25,1.37-37.48,1.21l-8.41-.11c-27.56-.35-55.31,0-82.81-1.28s-55.57.86-83.1,1.35c-11.41.2-22.71,1.53-34.12,1.58-11.68.06-23.33-.84-35-1.73-5-.39-10-.78-15-1.2-4.11-.35-9.8.11-13.66-1.36-5.74-2.18-11.57-10.3-15.68-14.79A174.39,174.39,0,0,1,286,580.19a2.89,2.89,0,0,1-.43-1.77,2.77,2.77,0,0,1,1.26-1.51c6.56-4.6,14.8-5.86,22.38-8.47,9.1-3.14,17.31-8.29,26.14-12,5.95-2.52,12.1-6.67,18.29-8.34,4.47-1.21,7.78,2.51,11.56,4.77a132.09,132.09,0,0,0,75.69,18.36c-8.49-18.11-22.13-33.21-35.58-48l-14.45-15.91C379.15,494.4,367,480.6,363.65,463.51c-.32.06,0,.19-.14-.11a9.65,9.65,0,0,1,10.65-3.58c28.38,9.3,57.7,4.62,87.57,4.72l44.66.15a73,73,0,0,1,10.15,10.72A141.3,141.3,0,0,0,558.6,512.9c12.77,7.43,26.73,12.86,38.68,21.53a27.05,27.05,0,0,0,6.2,3.82c3.44,1.28,7.26.86,10.87.19a101.42,101.42,0,0,0,17.87-5.58c5.51-2.11,10.9,1.77,16.61,3.13a70,70,0,0,0,37.77-1.48c1.49-.49,10.39,6.32,12.13,7.28q6.53,3.62,13.31,6.75c3.42,1.58,7.86,2.13,8.5,6.11.7,4.32-2.9,10.17-4.94,13.72a122.32,122.32,0,0,1-56.48,50.75A3.59,3.59,0,0,0,657.24,620.5Z" transform="translate(-54.6 -77.66)"/><path class="cls-2" d="M841.24,695.68a1074.56,1074.56,0,0,1-.71,116.73c-.44,7.32-1,14.71-3.06,21.74-4.29,14.41-15,26.33-27.62,34.42s-27.26,12.66-41.94,15.89c.69,7.86,1.36,15.88-.54,23.54s-4.52,14.44-12.36,15.3a371.18,371.18,0,0,1-45.83,2.14c-5.39-.08-11.14-.4-15.46-3.61-5.51-4.1-7.06-11.73-6.77-18.59s2-13.71,1.2-20.54c-107.24-.55-214,1.34-321.22,1.52a66.81,66.81,0,0,1-1.78,31c-.89,2.94-2.09,6-4.53,7.83s-6,2.22-9.19,2.39q-22.38,1.2-44.81.41c-4.65-.16-9.57-.47-13.41-3.1-5-3.44-6.93-10-7.21-16.11s.66-12.26-.33-18.29a6.18,6.18,0,0,0-1.38-3.38c-1-1.07-2.61-1.36-4.07-1.63-31.71-5.85-58.71-32-65.56-63.52-1.9-8.71-2.36-17.66-2.63-26.57a600.42,600.42,0,0,1,5.19-98.38c47.24-.15,92.51-5.65,139.75-5.23q22.77.2,45.54.45l33,.35,25.53.3q62.46.85,124.88,3.53c77.73,3.34,154.13,3.46,231.47-4.94C825.62,688.4,840.84,687.42,841.24,695.68Z" transform="translate(-54.6 -77.66)"/><path class="cls-3" d="M726.53,310.75c-5-31.87-27.7-60.36-57.65-72.36-6.72-2.68-13.6-1.51-19.83,2.16a42.74,42.74,0,0,0-46.33-47.25c-2.35.21-4.76.61-7,0-5.85-1.65-7.68-8.83-9-14.76-7.06-31.46-26.75-54.92-53-72.43-11.81-7.89-26.52-9.92-40-14.52-20-6.84-41.81-8.77-62.63-4.58-11.92,2.4-23.37,6.77-34.46,11.68-15.52,6.88-30.79,14.72-43.82,25.59s-26.35,23.8-30.8,40.18c-12.77-1.4-26.49-1.23-38.69,3-12.47,4.31-17.59,10.58-26,19.57C242,203.38,232,225.55,236.48,248.41c-29.32,15.74-51,45.63-55.31,78.62a96.71,96.71,0,0,0,2.88,38.47c6.64-4.54,14.23-5.8,22-6.46.72-.29,1.44-.56,2.18-.8,7.17-2.37,15.38-3.12,22.83-3.84,12.18-1.18,24.3.93,35.72,5.18,12.63,4.71,24.49,10.69,34.78,19.5a58.64,58.64,0,0,1,7.93,8.59c1.46,1.6,2.87,3.24,4.22,4.94l2.22,2.2c2.2,2.18,4.45,4.34,6.49,6.68,6,6.94,10.57,14.25,13.17,23.12a101.35,101.35,0,0,1,3.6,21.46,60.64,60.64,0,0,1,8.88,6.14,95.75,95.75,0,0,1,7.6,7l36.84,4.14c41.24,4.64,82,2.69,122.92-.37,42.53-3.18,83.12-10.51,122.54-27.45,13.12-5.63,26.07-12.25,37.09-21.43,9.37-7.81,20.23-17,28.38-26C721.91,367.4,730.84,338.18,726.53,310.75Z" transform="translate(-54.6 -77.66)"/><path class="cls-3" d="M336.89,443.16c-1.29-1.93-2.05-4.35-2.77-8.59C329.29,406.07,311,379.22,285,366c-21.45-10.91-48.55-9.23-71.63-6.22-22.61,2.95-46.13,12.29-62.72,28.23A73,73,0,0,0,135,410.71c-1.66,3.6-9.18,19.26-12.65,20-22.48,4.46-43.54,11.1-53.41,33.14-7.71,17.23-9.19,38.69-1,56,5.25,11.13,14.45,20.55,25.87,25.11,9.85,3.92,20.58,4,31,2.67,9.82-1.28,19.69-6.92,29.35-2.31,12.21,5.82,18.21,18.82,29.93,24.88,13.46,7,29,7.91,43.85,8.77l28.52,1.65c27.19,1.58,54-10.09,78.12-22.72,11.39-6,20.5-7.32,29.49-16.52s14.91-21.77,14.44-34.62c-.55-15-8.73-29.14-18-40.52a111.13,111.13,0,0,0-15.76-15.89C340.75,447.1,338.44,445.48,336.89,443.16Z" transform="translate(-54.6 -77.66)"/><path class="cls-3" d="M913.14,434.23A42.15,42.15,0,0,0,902.4,424c-10.47-6.41-24.86-3.76-35.92-9.1a108.85,108.85,0,0,0-33.58-48.58c-14.47-12-35.88-23-55-23.11a322.06,322.06,0,0,0-52.8,3.71c-6,18.31-15.08,35.33-29.09,49a35,35,0,0,1-4.27,5.26,51.06,51.06,0,0,1-6.33,5.28,26.42,26.42,0,0,1-4.79,4.42l-5.2,3.68-.55.41a3,3,0,0,1-.2.24l-.15.2c-1.31,1.85-2.7,3.73-4.18,5.43a25.47,25.47,0,0,1-18.19,8.91c-.85.68-1.71,1.38-2.55,2.08a16.21,16.21,0,0,1-2.92,2.48c-12.67,11-23.85,24.14-28.89,40-6,19,.15,38.95,14.89,52.09a59.29,59.29,0,0,0,25.25,13.21c11,2.68,24.19-1.71,34.7-5.12a72.5,72.5,0,0,0,34.25,21.61c8.8,2.7,18,3.91,27.13,4.82,16.22,1.61,32.85,2.26,48.57-2s30.58-14.23,37.42-29c8.55,1,17.32,0,25.87,1a102.76,102.76,0,0,0,14.12,1c19.66-.46,38.48-13.36,46-31.52C935,478.56,927.7,452.7,913.14,434.23Z" transform="translate(-54.6 -77.66)"/><path class="cls-4" d="M652.22,636.18l-74-.24-47.91-.16-104-.33c2.23-8.37,8.75-14.83,12.7-22.53,6.16-12,5.69-26.59,1.22-39.31s-12.58-23.82-21.37-34c-21.15-24.61-47.89-47.31-54.82-79-.05-.22,25.57,2.57,27.75,2.6,8.06.1,12.79.4,19.21,6.54,4.2,4,7.62,8.78,11.79,12.83,12.51,12.18,30.36,16.75,45.58,25.3,16.46,9.24,29.65,23.1,41.25,37.78,11.16,14.11,19.17,31.11,35.34,40.28,32.29,18.33,75.08,13,106.41-4.85,17.65-10,33-23.69,47-38.43a5,5,0,0,1,2.81-1.85,4.71,4.71,0,0,1,2.51.65,50.13,50.13,0,0,1,12.56,8.68c1.48,1.4,2.95,3,3.27,5a9.9,9.9,0,0,1-1,5,103.36,103.36,0,0,1-42.3,50.17c-4.17,2.52-10.29,4.33-14,7.44C656.08,623,662.24,636.21,652.22,636.18Z" transform="translate(-54.6 -77.66)"/><path class="cls-5" d="M206,359c.72-.29,1.44-.56,2.18-.8,7.17-2.37,15.38-3.12,22.83-3.84a76.2,76.2,0,0,1,25.22,2c25.5,6.17,48.49,25.27,64.41,45.54,5.61,7.14,10.6,14.85,17.18,21.1,1.37,1.3,3.31,2.62,5,1.77a3.5,3.5,0,0,0,1.55-1.83c1-2.36.45-5.05-.21-7.52A85.58,85.58,0,0,0,310.77,368c-7.83-5.45-16.57-9.57-24.06-15.5-14.35-11.34-20.56-29.13-17.12-47.22,3-15.74,14.64-27.8,17-44,1.69-11.47,2.41-23.27,6.65-34.06a55.61,55.61,0,0,1,26.37-29c16.54-8.39,30.92-11.91,42.21-27.87,6.3-8.91,7.13-20.06,11.1-30,7.14-17.81,21.61-29.32,36.09-41-2-2-5.28-1.42-8-.67a157.09,157.09,0,0,0-20.57,7.09c-5.72,2.46-11.06,7.69-15.93,11.63a170.13,170.13,0,0,0-30.56,31.45c-3.13,4.29-6.24,8.89-10.94,11.36-2.87,1.5-6.11,2.08-9.28,2.68a349.54,349.54,0,0,0-34.08,8.29c-8.07,2.41-16.26,5.21-22.79,10.54-5.46,4.46-9.45,10.46-12.93,16.59-6.67,11.76-11.86,24.8-11.82,38.32,0,3,.23,6.25-1.32,8.84a15.8,15.8,0,0,1-4.61,4.26c-25,18-39.74,48.44-41.76,79.21a137.87,137.87,0,0,0,2,35.1C192.48,360.67,199.19,359.62,206,359Z" transform="translate(-54.6 -77.66)"/><path class="cls-5" d="M704.79,376.94c-2.95-3.46-22.72,12.13-26.58,14.35a298.16,298.16,0,0,1-33.85,16.64,352.86,352.86,0,0,1-71.25,20.86c-45.31,8.39-92.68,9.72-138.55,5.66-36.3-3.22-71.82-9.86-105.32-23.77a55.57,55.57,0,0,1,6.32,13.93,101.35,101.35,0,0,1,3.6,21.46,60.64,60.64,0,0,1,8.88,6.14,90.34,90.34,0,0,1,11.36,11.07q5.93.38,11.87.44c9.42.1,18.83-.4,28.25-.35,30,.14,60,5.72,89.8,2.95,19.54-1.82,39.12-3.33,58.61-5.58,17.89-2.07,40.18-2.77,56.68-10.34,30.58-14,63.52-23.15,88.44-47.33,6-5.8,11.56-12.73,12.7-21C706,380.3,706,378.31,704.79,376.94Z" transform="translate(-54.6 -77.66)"/><path class="cls-5" d="M357,539.24c-7.68,1.9-14.74,5.66-22,8.72a114.79,114.79,0,0,1-72.08,5.57c-10.84-2.77-24-7.36-32.46-15s-12-21.24-23-25.7c-11.61-4.67-25.12,1-37-4.43-10.73-5-17-17.12-17-28.94,0-9,3.48-19.55,10-26,5.69-5.66,11.78-8.39,14.93-16.5,4.51-11.63,5-24.35,8.88-36.16a55.52,55.52,0,0,1,17-25.65c8-6.59,18.44-10.48,28.82-9.94-26.77-7.11-56.08-1.44-76.34,17.45-11.2,10.45-19.25,23.79-26.59,37.23-1.75,3.2-3.59,6.55-6.64,8.55-2.49,1.63-5.5,2.19-8.4,2.85-20.87,4.79-40.37,17.9-49.87,37.08s-7.35,44.4,7.53,59.79c8.69,9,20.78,14.09,33.05,16.47s24.88,2.26,37.38,2.18c3.41,0,6.93,0,10.06,1.32a27.31,27.31,0,0,1,6.18,4.2,146.79,146.79,0,0,0,101.16,32C296.71,581.8,332.19,565.6,357,539.24Z" transform="translate(-54.6 -77.66)"/><path class="cls-4" d="M395.47,600.89c17.71-.13,36.71-4.94,47.91-18.67a2.89,2.89,0,0,1,1.3-1.08c1.35-.4,2.37,1.22,2.75,2.58,3,10.7-.78,22.13-5.89,32-4.21,8.11-9.86,16.15-18.31,19.62-4.63,1.9-9.72,2.27-14.71,2.61-21.77,1.51-43.59,3-65.37,1.92-5-.25-10.18-.67-14.79-2.71-5.16-2.28-9.24-6.4-13.14-10.48C305,616,294.74,604.46,290.45,590.28c-.78-2.54-1.32-5.41-.11-7.78a10.91,10.91,0,0,1,3.48-3.58,80.92,80.92,0,0,1,8.75-5.63c7.22-4,13.55-5.17,18.82,1.43s12.78,10.56,20.54,14.24A123.48,123.48,0,0,0,395.47,600.89Z" transform="translate(-54.6 -77.66)"/><path class="cls-5" d="M924.41,481.77c-.14-2-.27-6.61-2.21-6.25-2.18,10-7.18,19.41-14.79,26.2s-17.88,10.75-28,10c-8.63-.66-16.62-4.53-24.78-7.4s-19.29-6.11-27.85-4.6-16.77,9.15-24.27,13.19a67.27,67.27,0,0,1-33.36,8.38,53.38,53.38,0,0,1-26.83-7.92c-5.38-3.38-9.56-8-15.44-10.64-5.17-2.33-11.19-2.7-16.5-4-10.06-2.42-18-10.4-21.35-19.9-3.26-9.2-1.41-21,3.79-29.18,6-9.37,6.54-19.47,10.06-29.79,3.3-9.69,9.86-17.85,16-26,9.15-12.19,17.8-25.34,20.83-40.28a6.32,6.32,0,0,0-.09-3.92c-1.34-2.85-7.58-1.38-9.73-.45-3.59,1.57-6,5-8.15,8.22q-6.65,9.93-13.06,20-3.32,5.19-6.56,10.41c-1.85,3-4.22,5.35-6.11,8.13a35,35,0,0,1-4.27,5.26,51.06,51.06,0,0,1-6.33,5.28,26.42,26.42,0,0,1-4.79,4.42l-5.2,3.68-.55.41a3,3,0,0,1-.2.24l-.15.2c-1.31,1.85-2.7,3.73-4.18,5.43a25.5,25.5,0,0,1-18.59,8.94l0,0a48.11,48.11,0,0,1-6.3,8.59c-4.78,5.16-10.81,9.06-15.49,14.31-8.94,10-12.11,24.18-11.51,37.61.45,10,2.89,20.11,8.58,28.34,10.52,15.22,31.1,21.5,49.28,18,2.84-.54,5.72-1.29,8.58-.88a22.31,22.31,0,0,1,7.36,3c29.76,16.33,63.49,28.36,97.19,24.3a61.24,61.24,0,0,0,18.48-4.8c12-5.57,20.76-16.31,29-26.7a109.16,109.16,0,0,0,41.22,2.91A67.5,67.5,0,0,0,890.36,532C911.11,525.32,925.91,503.5,924.41,481.77Z" transform="translate(-54.6 -77.66)"/><path class="cls-5" d="M724.85,347.59a148.44,148.44,0,0,1-6,15.3,113.32,113.32,0,0,1,17.49-13.26c5.86-3.75,1.51-3.21-2.65-3A86.51,86.51,0,0,0,724.85,347.59Z" transform="translate(-54.6 -77.66)"/><rect class="cls-2" x="140.56" y="558.51" width="662.55" height="52.54" rx="12.41"/><path class="cls-6" d="M337.87,779.92a37.25,37.25,0,0,1-37.14-37.14V637.34c-31.1,0-65.42-4.16-96,1.08a12.38,12.38,0,0,0-4.2,1.25c-3.17,1.85-4,6-4.39,9.62A99.07,99.07,0,0,0,198,680.2c.52,2.35,1.24,4.86,3.15,6.32,2.28,1.73,5.44,1.41,8.24,2,11.45,2.3,5.28,65.43,5.28,76.67v44.55a73,73,0,0,0,72.75,72.75H768.53c64.05,0,72.6-62.65,72.75-102.55Z" transform="translate(-54.6 -77.66)"/><path class="cls-7" d="M418.48,643.27a8,8,0,0,1-3.74-15c11.41-6,18.77-14.46,21.89-25,3.51-11.94,1.23-26-6.43-39.71C422.94,550.59,412,541.06,400.37,531c-14.71-12.79-29.92-26-37.61-46.86a8,8,0,1,1,14.94-5.51C384,495.61,397,507,410.82,519c12.12,10.54,24.66,21.43,33.27,36.79,9.77,17.44,12.55,35.91,7.81,52-4.31,14.63-14.58,26.59-29.71,34.6A7.88,7.88,0,0,1,418.48,643.27Z" transform="translate(-54.6 -77.66)"/><path class="cls-7" d="M658.63,641.22a8,8,0,0,1-7.89-7c-3.66-28.61-17.34-56-38.51-77.27-15.17-15.21-32.08-24.57-48.43-33.62-22-12.16-44.67-24.73-61.31-50.89A8,8,0,1,1,515.92,464c14.47,22.74,34.44,33.79,55.59,45.5,17.32,9.59,35.23,19.5,52,36.3,23.64,23.7,38.93,54.42,43,86.5a8,8,0,0,1-6.89,8.91A8.72,8.72,0,0,1,658.63,641.22Z" transform="translate(-54.6 -77.66)"/><path class="cls-7" d="M656.73,630.1A8,8,0,0,1,653.18,615c26.59-13.22,49-36.71,61.42-64.43a8,8,0,1,1,14.53,6.52,148.48,148.48,0,0,1-68.86,72.17A7.82,7.82,0,0,1,656.73,630.1Z" transform="translate(-54.6 -77.66)"/><path class="cls-7" d="M604,545.28l-2.6,0a8,8,0,1,1,.19-15.92c13.52.17,19.93-.8,29-6.54a8,8,0,1,1,8.5,13.46C627.36,543.7,618.13,545.28,604,545.28Z" transform="translate(-54.6 -77.66)"/><path class="cls-7" d="M335.07,643.37a7.91,7.91,0,0,1-4.37-1.31c-25.39-16.69-42.63-37.34-51.24-61.38a8,8,0,1,1,15-5.37c7.42,20.71,22.56,38.69,45,53.44a8,8,0,0,1-4.38,14.62Z" transform="translate(-54.6 -77.66)"/><path class="cls-7" d="M438.57,581.83a153.55,153.55,0,0,1-88.82-28.08,8,8,0,0,1,9.25-13c23.54,16.79,54,25.93,83.62,25.06a8,8,0,1,1,.47,15.92C441.58,581.81,440.07,581.83,438.57,581.83Z" transform="translate(-54.6 -77.66)"/><path class="cls-8" d="M846.18,699.5H206.68A19.5,19.5,0,0,1,187.2,680V648.86a19.5,19.5,0,0,1,19.48-19.49h639.5a19.5,19.5,0,0,1,19.48,19.49V680A19.5,19.5,0,0,1,846.18,699.5Zm-639.5-54.2a3.61,3.61,0,0,0-3.56,3.56V680a3.61,3.61,0,0,0,3.56,3.56h639.5a3.61,3.61,0,0,0,3.56-3.56V648.86a3.61,3.61,0,0,0-3.56-3.56Z" transform="translate(-54.6 -77.66)"/><path class="cls-8" d="M768.53,890.44H287.46a80.81,80.81,0,0,1-80.71-80.72V691.53a8,8,0,0,1,8-8H841.29a8,8,0,0,1,8,8V809.72A80.81,80.81,0,0,1,768.53,890.44ZM222.67,699.5V809.72a64.86,64.86,0,0,0,64.79,64.79H768.53a64.87,64.87,0,0,0,64.8-64.79V699.5Z" transform="translate(-54.6 -77.66)"/><path class="cls-8" d="M350.79,932.3H301.92A23,23,0,0,1,279,909.37v-26.9a8,8,0,0,1,8-8h78.81a8,8,0,0,1,8,8v26.9A23,23,0,0,1,350.79,932.3Zm-55.87-41.86v18.93a7,7,0,0,0,7,7h48.87a7,7,0,0,0,7-7V890.44Z" transform="translate(-54.6 -77.66)"/><path class="cls-8" d="M752.55,932.3H703.69a23,23,0,0,1-22.94-22.93v-26.9a8,8,0,0,1,8-8h78.8a8,8,0,0,1,8,8v26.9A23,23,0,0,1,752.55,932.3Zm-55.87-41.86v18.93a7,7,0,0,0,7,7h48.86a7,7,0,0,0,7-7V890.44Z" transform="translate(-54.6 -77.66)"/><path class="cls-9" d="M733.82,310.07c-3.85-30.72-26.4-68.09-60.58-76.82a99.4,99.4,0,0,0-15.31-2.11c-2.79-22.18-23.16-39.65-44.12-43.3a86,86,0,0,0-13.76-.46C591.14,148.87,563.88,114,527.24,95c-37.36-19.4-83-22.67-125.33-9-39.45,12.78-69.41,37.41-83.3,68.18-21.53-.58-45.57,6.65-61.77,18.87-25.19,19-29.54,50-29.36,70.11a110.81,110.81,0,0,0-42.71,45.72c-10.81,21.25-14.71,45.19-11,67.42a109.52,109.52,0,0,0,3,12.87,25,25,0,0,1,4.24-2l1.44-.5c.47-.37.94-.73,1.43-1.06a32.63,32.63,0,0,1,9.9-4.57c-.65-2.53-1.21-5.12-1.66-7.8-6.34-37.77,14.72-79.18,49-96.3a9.3,9.3,0,0,0,5.12-8.81c-1.45-26.72,6.5-48.67,21.81-60.23,12.25-9.24,31.63-15.14,48.46-15.14a64.16,64.16,0,0,1,7.15.38,9.28,9.28,0,0,0,9.74-6c10.46-28.41,37.52-51.53,74.25-63.43,37.6-12.19,78.08-9.36,111,7.77,34.25,17.79,59.05,51.33,64.71,87.53a9.28,9.28,0,0,0,11.21,7.63c5-1.12,14.18-.72,16.11-.48,15.42,2.74,31,17.08,28.75,33.36a9.29,9.29,0,0,0,11.18,10.34c4.09-.9,15.1.66,18,1.4,25.27,6.46,43.61,36.15,46.75,61.13a90.91,90.91,0,0,1-14.31,61.31C684.19,399.29,656,415.63,633.31,427c-31.67,15.88-69.75,25.4-116.41,29.09-51,4-101-.07-143.26-4.6-10.81-1.17-21.54-2.47-32.07-4a65.31,65.31,0,0,1,6.47,4.71,85.35,85.35,0,0,1,15.88,16.9l7.74.85c29.12,3.13,64.83,6.31,102.21,6.31,14.67,0,29.61-.49,44.5-1.67,49.09-3.88,89.41-14,123.27-31,24.75-12.41,55.63-30.4,75-59.68A109.43,109.43,0,0,0,733.82,310.07Z" transform="translate(-54.6 -77.66)"/><path class="cls-9" d="M708.83,378.81h0Z" transform="translate(-54.6 -77.66)"/><path class="cls-9" d="M936.47,470.93C934.87,443.59,919,421,894.93,412c-1.7-.64-4.45-1.21-13.72-3-2.12-.41-4.85-.92-7.06-1.36A119.8,119.8,0,0,0,848,367.91c-15.67-15.6-35.42-26.19-58.72-31.46a136,136,0,0,0-61.18.27,163.66,163.66,0,0,1-7.1,21.37,116.67,116.67,0,0,1,64.18-3.53c19.83,4.5,36.56,13.41,49.71,26.51a102.74,102.74,0,0,1,23.69,37.66c1.87,5.07,6.17,5.95,10.73,6.89,2.32.48,5.41,1.06,8.5,1.65,3.75.71,9.38,1.78,10.84,2.17,20.23,7.7,28.42,27,29.33,42.57.93,15.93-5,36.55-24.55,46.61-15.35,7.92-35.11,5.42-54,2.19a9.31,9.31,0,0,0-9.66,4.59C818,546.2,795.6,552.06,778.9,553.3c-20.81,1.54-44.58-3.07-63.53-12.33-2.36-1.24-16.36-10.24-20.1-13.09a9.3,9.3,0,0,0-11.06-2.62,44.32,44.32,0,0,1-32.93,1.37c-14.91-5.34-24.27-17.47-25.7-33.28-1.7-18.9,8.06-37.9,24.31-47.3.62-.36,1.59-.78,2.61-1.23a35.84,35.84,0,0,0,18.12-19.07c.7-1.69-5.85-2.86-7.27-2.68-3.87.48-7.24,2.91-10.46,4.89A90.45,90.45,0,0,1,636,436.09c-2.41.87-4.66.38-6.54,2a58.44,58.44,0,0,0-5.75,5.92,70.24,70.24,0,0,0-15,29.16A66.84,66.84,0,0,0,607.08,495c2.07,23,16.25,41.33,37.93,49.1a63.13,63.13,0,0,0,41.32.26c1.94,1.36,4.32,2.92,7.21,4.82.11.07,10.71,7,13.61,8.42A150,150,0,0,0,771,572.17c3.15,0,6.26-.12,9.32-.34,27.77-2.07,49.08-13,62.08-31.7,20.16,3.16,41,4.57,59.53-5C924.85,523.3,938.1,498.69,936.47,470.93Z" transform="translate(-54.6 -77.66)"/><path class="cls-9" d="M688.05,533.72h0Z" transform="translate(-54.6 -77.66)"/><path class="cls-9" d="M888.71,429.47h0Z" transform="translate(-54.6 -77.66)"/><path class="cls-9" d="M876,412.28v0Z" transform="translate(-54.6 -77.66)"/><path class="cls-9" d="M247.65,591.32q-7.05,0-14.08-.51c-20.61-1.49-47-5-68-18.72-.16-.11-11.2-7.62-17.38-16.26-20,3.08-40.55,4.37-58.9-5.09-23-11.84-36.2-36.45-34.58-64.21,1.6-27.34,17.52-49.93,41.54-58.95,1.71-.64,4.46-1.21,13.72-3,2.12-.4,4.85-.92,7.07-1.36a119.93,119.93,0,0,1,26.19-39.75h0c15.67-15.6,35.43-26.19,58.72-31.46,42.29-9.58,87,1.68,116.61,29.38,15.13,14.14,24.44,36.27,25.88,61.21l1.73.78a43.4,43.4,0,0,1,4.43,2.15c21.77,12.59,35,37.13,33.68,62.52-1.34,26-22,48.59-41.89,59.41A200,200,0,0,1,247.65,591.32ZM162.59,544.1c2,3.17,10.3,10.56,13.18,12.45,17.33,11.35,39.62,14.32,59.14,15.73a181.38,181.38,0,0,0,98.62-21.1c14.84-8.07,31.25-25.3,32.22-44,.94-18.2-8.88-36.48-24.43-45.47-.62-.36-1.59-.79-2.62-1.24-3.3-1.46-7.84-3.45-10.9-7.72a9.33,9.33,0,0,1-1.74-5.23c-.42-21.45-8-41.06-20.17-52.47-25.19-23.55-63.44-33.07-99.82-24.83-19.83,4.49-36.56,13.41-49.71,26.5h0a102.74,102.74,0,0,0-23.69,37.68c-1.87,5-6.17,5.94-10.73,6.87-2.32.48-5.41,1.07-8.5,1.65-3.75.71-9.38,1.78-10.83,2.17-20.24,7.7-28.42,27-29.33,42.57-.93,15.94,5,36.55,24.55,46.62,15.34,7.91,35.1,5.41,54,2.18a9.28,9.28,0,0,1,10.74,7.69Zm.09,2.19h0Zm-.36-2.66ZM149.81,390.09h0Z" transform="translate(-54.6 -77.66)"/><ellipse class="cls-10" cx="254.56" cy="262.81" rx="23.62" ry="15.9"/><circle class="cls-11" cx="542.66" cy="232.83" r="25.38"/><path class="cls-11" d="M478.24,333.57a28.49,28.49,0,0,1-3.14-.18c-12.45-1.34-21.31-11.73-23.11-27.12a6,6,0,1,1,11.86-1.39c.3,2.59,2.33,15.54,12.53,16.64,4.79.51,6.44-1,7-1.51,2.51-2.29,3.71-7.52,3.57-15.56a6,6,0,1,1,11.94-.21c.13,7.52-.5,18.24-7.45,24.59A18.87,18.87,0,0,1,478.24,333.57Z" transform="translate(-54.6 -77.66)"/><circle class="cls-11" cx="298.99" cy="232.83" r="25.38"/><ellipse class="cls-10" cx="592.33" cy="254.21" rx="23.62" ry="15.9"/><path class="cls-5" d="M225.33,458.5a19,19,0,0,1,3.11-2.2,20.8,20.8,0,0,1,3.53-1.5,19.59,19.59,0,0,1,7.72-.75,19.35,19.35,0,0,1,3.92.85,17,17,0,0,1,1.94.77,13.22,13.22,0,0,1,7.08,8.71l-7.58-.83h0a18.4,18.4,0,0,1,4.61-6.46,20.55,20.55,0,0,1,6.68-3.86,25.22,25.22,0,0,1,14.64-1,20.78,20.78,0,0,1,7,3.13,19.24,19.24,0,0,1,5.35,5.77,19.91,19.91,0,0,1,2.32,15.14L279,472.46h0a17.4,17.4,0,0,1,8.88-4.2,31.37,31.37,0,0,1,8.75-.09,31,31,0,0,1,15.52,6.72,2.1,2.1,0,0,1-2.4,3.43h0a25.8,25.8,0,0,0-13.48-4.06,25.09,25.09,0,0,0-6.83.88,9.77,9.77,0,0,0-4.79,3h0l-.17.15a4,4,0,0,1-6.52-4,12,12,0,0,0-1.42-9,11.12,11.12,0,0,0-3.11-3.36,12.91,12.91,0,0,0-4.34-1.91,17.36,17.36,0,0,0-10,.71,10.6,10.6,0,0,0-6.72,6h0l-.55.9a3.8,3.8,0,0,1-7-1.73,5.72,5.72,0,0,0-1.65-3.69,7.33,7.33,0,0,0-1.94-1.39,13.77,13.77,0,0,0-2.51-1,14.24,14.24,0,0,0-5.61-.33,13.75,13.75,0,0,0-5.41,2l-.08.05a1.91,1.91,0,0,1-2.26-3.07Z" transform="translate(-54.6 -77.66)"/><path class="cls-5" d="M834.51,436.22a14.92,14.92,0,0,0-2.7-1.08,15.45,15.45,0,0,0-2.85-.49,14.2,14.2,0,0,0-5.56.75,13.29,13.29,0,0,0-2.43,1.17,7.12,7.12,0,0,0-1.83,1.52,5.76,5.76,0,0,0-1.37,3.8,3.8,3.8,0,0,1-6.87,2.27l-.63-.87h0a10.58,10.58,0,0,0-7.15-5.5,17.3,17.3,0,0,0-10,0,13.11,13.11,0,0,0-4.18,2.23,11.21,11.21,0,0,0-2.85,3.58,12,12,0,0,0-.74,9.07,4,4,0,0,1-6.18,4.49l-.21-.16h0a9.75,9.75,0,0,0-5-2.63,24.57,24.57,0,0,0-6.88-.36,25.61,25.61,0,0,0-13.13,5.05h0a2.11,2.11,0,0,1-2.93-.48,2.09,2.09,0,0,1,.28-2.76,30.82,30.82,0,0,1,15-7.86,31.61,31.61,0,0,1,8.73-.57,17.46,17.46,0,0,1,9.17,3.52h0l-6.38,4.34A19.87,19.87,0,0,1,778.93,440a19.12,19.12,0,0,1,4.91-6.16,21,21,0,0,1,6.79-3.65,25.24,25.24,0,0,1,14.68-.12,20.43,20.43,0,0,1,7,3.35,18.55,18.55,0,0,1,5.08,6.09h0l-7.51,1.4A13.23,13.23,0,0,1,814.4,433a12.64,12.64,0,0,1,1.84-1.28,16.23,16.23,0,0,1,1.88-.92,19.06,19.06,0,0,1,3.85-1.14,19.65,19.65,0,0,1,7.76.17,21,21,0,0,1,3.63,1.23,19.58,19.58,0,0,1,3.26,2,1.92,1.92,0,0,1-2,3.24Z" transform="translate(-54.6 -77.66)"/><path class="cls-5" d="M496.71,149.11a26.75,26.75,0,0,0-5.28-4.38,29.53,29.53,0,0,0-6.23-2.87,30.28,30.28,0,0,0-6.7-1.29,28,28,0,0,0-6.68.31,25.18,25.18,0,0,0-6.17,1.91,21.87,21.87,0,0,0-5.17,3.41c-.35.36-.75.68-1.08,1.07l-.52.55a4.44,4.44,0,0,0-.34.5,7.74,7.74,0,0,0-.87,2,6.82,6.82,0,0,0,.16,3.88A6.92,6.92,0,0,1,447,161.85l-2.25-1.75h0a13.23,13.23,0,0,0-4.62-3.46,16.28,16.28,0,0,0-6.1-1.21c-.57,0-1.23,0-1.79,0s-1.14,0-1.71.11a24.42,24.42,0,0,0-3.4.59,21.64,21.64,0,0,0-6.19,2.57,17,17,0,0,0-4.63,4.15,14.35,14.35,0,0,0-2.46,5.36,15.67,15.67,0,0,0,1.86,11.68L403.13,188h0a2.43,2.43,0,0,0,.83.7c.22.09.25,0,.16,0a4.54,4.54,0,0,0-1.8-.43,25.85,25.85,0,0,0-6.3.45,46.83,46.83,0,0,0-6.78,1.74,29.18,29.18,0,0,0-3,1.18l-.49.23-.61.39c-.42.28-.83.57-1.22.89a19.25,19.25,0,0,0-6.64,10.39,16.8,16.8,0,0,0,1.54,12.3l0,.08a3.92,3.92,0,0,1-6.62,4.19,24.66,24.66,0,0,1-3.9-8.69,26.19,26.19,0,0,1-.43-9.54,29.57,29.57,0,0,1,8.45-17c.58-.58,1.2-1.13,1.83-1.67l1-.79c.44-.32.82-.58,1.2-.83a40.17,40.17,0,0,1,4.17-2.3,59.94,59.94,0,0,1,8.31-3.26,39.39,39.39,0,0,1,9.43-1.79,19.87,19.87,0,0,1,6.07.58,13.68,13.68,0,0,1,3.76,1.62,12.23,12.23,0,0,1,3.63,3.49h0a7.5,7.5,0,0,1-12.5,8.28l-.07-.09-.05-.09a30.51,30.51,0,0,1-3.85-23.16,28.79,28.79,0,0,1,1.94-5.72,31.15,31.15,0,0,1,3.12-5.26,32,32,0,0,1,8.75-7.9,36.46,36.46,0,0,1,10.46-4.38,37,37,0,0,1,5.53-.95c.93-.11,1.86-.15,2.8-.18s1.8,0,2.73,0a31.18,31.18,0,0,1,11.54,2.45,28.35,28.35,0,0,1,9.83,7.22h0l-13,5.9a20.57,20.57,0,0,1,6.2-16.07c.33-.31.7-.65,1-.93l.92-.8c.61-.55,1.28-1,1.92-1.51a33.38,33.38,0,0,1,8.53-4.4,36.13,36.13,0,0,1,9.16-1.82,38.27,38.27,0,0,1,17.69,3.16,37,37,0,0,1,7.68,4.57,34,34,0,0,1,6.24,6.39,3.6,3.6,0,0,1-5.52,4.59Z" transform="translate(-54.6 -77.66)"/></svg>